<?xml version="1.0" encoding="UTF-8" standalone="no"?>
<!-- Created with Inkscape (http://www.inkscape.org/) -->

<svg
   width="451.64377mm"
   height="253.4709mm"
   viewBox="0 0 451.64376 253.47089"
   preserveAspectRatio="none"
   version="1.1"
   id="svg5"
   inkscape:version="1.1.2 (b8e25be833, 2022-02-05)"
   sodipodi:docname="backgroundMask.svg"
   xmlns:inkscape="http://www.inkscape.org/namespaces/inkscape"
   xmlns:sodipodi="http://sodipodi.sourceforge.net/DTD/sodipodi-0.dtd"
   xmlns="http://www.w3.org/2000/svg"
   xmlns:svg="http://www.w3.org/2000/svg">
  <g
     inkscape:label="Layer 1"
     inkscape:groupmode="layer"
     id="layer1"
     transform="translate(973.62146,-765.97527)">
    <g
       id="g5272">
      <path
         id="rect4745"
         style="opacity:1;fill:#e6ecf0;fill-opacity:1;"
         d="m 104.79297,0 c 0,0 0.10019,10.298908 0.19922,20.390625 0.0503,5.125795 0.0345,12.525592 1.39258,18.589844 1.55625,6.953197 4.12924,13.764465 7.64257,19.96289 1.69724,2.99452 3.98992,5.641346 6.37696,8.121094 6.26388,6.507591 12.96409,12.806967 20.66015,17.535156 7.58136,4.657512 16.1605,7.543184 24.60547,10.345703 182.955,60.709798 375.60593,87.422428 561.33789,139.015628 20.09976,5.58349 41.30743,8.7946 59.80274,18.44336 11.57166,6.03666 21.98973,14.52026 30.87109,24.08398 5.23514,5.63754 9.51154,12.24823 12.8125,19.19727 5.60134,11.79175 9.74589,24.49929 11.51172,37.43359 1.92219,14.07988 0.58196,28.51079 -1.15039,42.61524 -1.65457,13.47137 -4.57727,26.85337 -8.7832,39.75781 -5.65199,17.34085 -13.87794,33.76638 -21.94727,50.12304 C 727.20375,633.69726 538.64062,958 538.64062,958 H 1707 V 0 Z"
         transform="matrix(0.26458332,0,0,0.26458332,-973.62146,765.97527)" />
      <rect
         style="display:inline;opacity:0.534553;fill:none;fill-opacity:1;stroke:none;stroke-width:0.264583;stroke-linecap:round;stroke-miterlimit:4;stroke-dasharray:none;stroke-dashoffset:140;stroke-opacity:1"
         id="rect10388"
         width="451.64374"
         height="253.47083"
         x="-973.62146"
         y="765.97534" />
    </g>
  </g>
</svg>
