<?xml version="1.0" standalone="no"?>
<!DOCTYPE svg PUBLIC "-//W3C//DTD SVG 1.1//EN" "http://www.w3.org/Graphics/SVG/1.1/DTD/svg11.dtd" >
<svg xmlns="http://www.w3.org/2000/svg">
<metadata>Generated by IcoMoon</metadata>
<defs>
<font id="icomoon" horiz-adv-x="1024">
<font-face units-per-em="1024" ascent="960" descent="-64" />
<missing-glyph horiz-adv-x="1024" />
<glyph unicode="&#x20;" horiz-adv-x="512" d="" />
<glyph unicode="&#xe900;" glyph-name="alignTop" d="M4.094 960v-122.88h1015.799v122.88zM4.094 734.711v-122.88h1015.799v122.88zM4.094 509.436v-122.88h1015.799v122.88z" />
<glyph unicode="&#xe901;" glyph-name="alignCenter" d="M4.094 734.713v-122.88h1015.8v122.88zM4.094 509.438v-122.88h1015.8v122.88zM4.094 284.163v-122.88h1015.8v122.88z" />
<glyph unicode="&#xe902;" glyph-name="alignBottom" d="M4.094 509.436v-122.88h1015.8v122.88zM4.094 284.16v-122.88h1015.8v122.88zM4.094 58.886v-122.88h1015.8v122.88z" />
<glyph unicode="&#xe903;" glyph-name="justifyLeft" d="M4.095 960v-122.879h1015.792v122.879zM4.095 734.712v-122.879h665.599v122.879zM4.095 509.439v-122.879h1015.792v122.879zM4.095 284.166v-122.879h665.599v122.879zM4.095 58.879v-122.879h1015.792v122.879z" />
<glyph unicode="&#xe904;" glyph-name="justifyCenter" d="M4.094 960v-122.879h1015.792v122.879zM179.19 734.713v-122.879h665.599v122.879zM4.094 509.439v-122.879h1015.792v122.879zM179.19 284.166v-122.879h665.599v122.879zM4.094 58.879v-122.879h1015.792v122.879z" />
<glyph unicode="&#xe905;" glyph-name="justifyRight" d="M4.093 960v-122.879h1015.792v122.879zM354.301 734.712v-122.879h665.584v122.879zM4.093 509.439v-122.879h1015.792v122.879zM354.301 284.166v-122.879h665.584v122.879zM4.093 58.879v-122.879h1015.792v122.879z" />
<glyph unicode="&#xe906;" glyph-name="font1" d="M400.259 350.281h-223.054l-39.088-90.921q-14.446-33.565-14.446-50.134 0-13.169 12.323-23.367 12.745-9.771 54.383-12.745v-15.721h-181.418v15.721q36.114 6.371 46.734 16.569 21.668 20.394 48.011 82.849l202.66 474.149h14.87l200.535-479.248q24.218-57.781 43.761-75.2 19.969-16.996 55.233-19.119v-15.721h-227.302v15.721q34.413 1.697 46.31 11.47 12.321 9.771 12.321 23.794 0 18.692-16.993 59.055zM388.362 381.72l-97.719 232.825-100.266-232.825zM878.231 213.473q-59.906-46.31-75.2-53.532-22.943-10.622-48.86-10.622-40.361 0-66.704 27.618-25.917 27.616-25.917 72.651 0 28.466 12.745 49.284 17.42 28.89 60.332 54.383 43.336 25.492 143.603 62.031v15.295q0 58.207-18.692 79.875-18.27 21.668-53.534 21.668-26.765 0-42.486-14.446-16.145-14.444-16.145-33.139l0.848-24.642q0-19.545-10.198-30.167-9.771-10.62-25.917-10.62-15.719 0-25.917 11.046-9.771 11.046-9.771 30.165 0 36.539 37.389 67.128 37.387 30.591 104.941 30.591 51.833 0 84.972-17.42 25.068-13.171 36.963-41.211 7.648-18.27 7.648-74.776v-132.132q0-55.657 2.132-68.405 2.132-12.321 6.798-16.569 5.097-4.248 11.47-4.248 6.798 0 11.897 2.974 8.921 5.523 34.413 31.016v-23.794q-47.585-63.728-90.921-63.728-20.818 0-33.139 14.444-12.321 14.446-12.747 49.284zM878.231 241.091v148.278q-64.154-25.492-82.847-36.114-33.565-18.695-48.011-39.088-14.444-20.394-14.444-44.609 0-30.591 18.268-50.985 18.268-19.969 42.062-19.969 32.29 0 84.972 42.488z" />
<glyph unicode="&#xe907;" glyph-name="font2" d="M500.012 155.733l-71.103 182.718h-233.978l-70.276-182.718h-75.237l230.671 592.8h66.969l229.844-592.8zM406.586 404.594l-66.142 178.584q-2.48 6.614-8.268 23.977t-11.575 35.551q-4.961 19.016-8.268 28.937-6.614-25.63-14.055-50.433-6.614-23.977-11.575-38.032l-66.969-178.584zM815.841 606.327q81.024 0 119.883-35.551t38.859-113.269v-301.774h-52.914l-14.055 62.835h-3.307q-28.937-36.378-61.182-53.741t-87.638-17.362q-60.355 0-100.040 31.418-39.685 32.244-39.685 100.040 0 66.142 52.087 101.694 52.087 36.378 160.395 39.685l75.237 2.48v26.457q0 55.394-23.977 76.89t-67.796 21.496q-34.725 0-66.142-10.748-31.418-9.921-58.701-23.15l-22.323 54.567q28.937 15.709 68.623 26.457 39.685 11.575 82.678 11.575zM902.653 372.349l-65.315-2.48q-82.678-3.307-114.922-26.457-31.418-23.15-31.418-65.315 0-37.205 22.323-54.567 23.15-17.362 58.701-17.362 55.394 0 92.599 30.591 38.032 31.418 38.032 95.906z" />
<glyph unicode="&#xe908;" glyph-name="font3" d="M535.716 424.804q-114.465-22.691-191.615-53.45-46.391-68.074-101.858-163.376l-26.726-46.895q-7.058-12.606-21.682-36.304-16.136-27.736-33.785-27.736-9.581 0-16.136 7.565-6.555 6.555-6.555 14.623 0 14.12 37.817 80.177 20.675 35.801 62.527 101.354 16.136 25.211 25.717 41.346-30.256-8.571-55.466-19.665-12.103-5.545-20.171-5.545-10.084 0-15.63 9.075-4.035 5.548-4.035 13.11 0 17.146 12.103 24.204 19.665 12.103 70.593 27.736 37.82 12.1 60.008 22.185 10.588 13.11 55.466 77.15 19.162 27.734 108.916 131.104 64.544 75.638 133.123 140.688 39.836 38.321 61.015 38.321 13.11 0 22.691-10.588 8.068-9.581 8.068-21.178 0-14.12-14.12-49.417-24.204-62.022-46.391-132.617-19.162-62.528-25.717-95.809 9.077 0 12.103 0.513 14.623 0.495 24.204 0.495 29.246 0 29.246-22.187 0-9.58-6.555-19.162-6.052-9.075-14.12-11.091-3.026-1.007-16.639-1.007-28.743 0-42.862-3.53-12.101-35.801-38.321-183.043-13.616-97.823-13.113-120.010 0-36.307-21.682-36.307-17.145 0-26.726 17.65-7.058 12.102-7.058 32.778 0 69.586 24.707 187.579 12.607 59.501 18.658 91.267zM549.835 479.263q4.536 14.623 23.195 78.159 4.539 16.639 23.194 66.057 18.658 50.928 29.752 81.686-32.775-21.681-66.56-57.482-119.003-128.080-167.914-209.264 18.656 4.539 80.174 22.691 17.649 5.042 78.16 18.152zM786.801 229.662q-16.642-29.249-32.778-49.417-31.766-39.331-63.031-39.331-27.23 0-42.356 25.714-9.581 16.642-9.581 39.332 0 55.973 35.298 123.54 39.33 75.134 94.799 115.473 36.305 26.221 70.089 26.221 21.178 0 35.298-13.11 12.101-11.598 12.101-26.221 0-11.093-8.571-30.759 7.565-10.59 7.565-18.659 0-10.588-14.12-34.791-14.623-24.711-29.246-65.554-15.633-43.365-15.633-69.586 0-21.178 12.607-34.795 3.529-3.529 20.675-11.597 12.607-6.052 12.607-21.178 0-9.58-7.061-15.632-7.562-6.555-17.649-6.555-27.23 0-46.895 24.204-16.136 19.665-16.136 49.417 0 10.084 2.014 33.282zM849.832 395.558q-6.052 11.093-13.113 16.136-7.059 5.548-15.127 5.548-38.323 0-83.2-67.066-49.417-74.124-49.417-125.558 0-12.604 4.539-19.159 5.042-6.558 14.623-6.558 24.204 0 56.476 51.434 18.152 28.239 44.879 83.202 17.649 35.801 25.717 47.398 4.033 6.052 14.623 14.624z" />
<glyph unicode="&#xe909;" glyph-name="bold" d="M151.371 949.923h312.123q199.646 0 302.282-56.238 104.041-56.238 104.041-198.24 0-85.764-40.773-144.814-39.367-59.050-113.883-71.704v-7.030q49.209-11.248 89.981-36.554 42.179-23.902 66.080-71.705t23.901-126.537q0-136.378-99.823-213.706-98.417-77.328-268.539-77.328h-375.392zM363.671 552.036h123.725q92.793 0 127.942 28.119 36.555 29.525 36.555 87.17t-42.179 82.952-133.566 25.307h-112.477zM363.671 383.321v-261.509h139.19q95.605 0 133.566 36.554 37.961 37.961 37.961 99.823 0 56.238-39.367 89.981-37.961 35.149-139.19 35.149z" />
<glyph unicode="&#xe90a;" glyph-name="italic" d="M473.292 154.305q-9.752-44.263-12.756-70.52-2.996-25.504-2.996-46.51 0-33.758 16.504-48.012 17.254-13.505 57.015-16.504l-8.254-36.758h-300.073l8.254 36.758q28.507 4.501 42.757 14.253 14.254 10.501 24.006 28.507 9.756 18.003 18.006 43.511 8.25 26.256 24.755 100.525l127.531 577.638q7.505 34.511 12.003 66.018 4.502 32.256 4.502 54.764 0 35.256-18.002 48.761-18.006 14.253-55.513 16.504l8.25 36.758h300.073l-8.25-36.758q-28.507-6.004-41.263-13.505-12.003-7.501-22.504-22.504-9.752-15.003-20.253-47.263-9.752-31.508-25.508-103.525z" />
<glyph unicode="&#xe90b;" glyph-name="lineStyle" d="M1.73 281.778h1020.508v-343.56h-1020.508zM0 283.992v-347.986h1023.966v347.986zM3.454 279.568h1017.057v-339.139h-1017.057zM1.436 573.165h1021.147v-233.508h-1021.147zM0.015 574.993v-237.158h1023.996v237.158zM2.866 571.345h1018.294v-229.863h-1018.294zM1.161 795.232v-166.397h245.795v166.397zM376.31 795.232v-166.397h258.721v166.397zM764.384 795.232v-166.397h258.42v166.397zM1.161 959.999v-110.944h77.618v110.944zM165.025 959.999v-110.944h172.476v110.944zM423.746 959.999v-110.944h172.476v110.944zM682.453 959.999v-110.944h172.491v110.944zM941.174 959.999v-110.944h81.63v110.944z" />
<glyph unicode="&#xe90c;" glyph-name="pattern1" d="M4.093 495.525v-95.048h1015.801v95.048z" />
<glyph unicode="&#xe90d;" glyph-name="pattern2" d="M4.096 495.161v-94.317h264.114v94.317zM362.541 495.161v-94.317h282.965v94.317zM739.824 495.161v-94.317h280.086v94.317z" />
<glyph unicode="&#xe90e;" glyph-name="pattern3" d="M4.096 489.927v-83.849h83.849v83.849zM171.778 489.927v-83.849h167.683v83.849zM423.31 489.927v-83.849h167.683v83.849zM674.827 489.927v-83.849h167.683v83.849zM926.343 489.927v-83.849h93.567v83.849z" />
<glyph unicode="&#xe90f;" glyph-name="pattern4" d="M4.096 489.927v-83.849h50.315v83.849zM138.245 489.927v-83.849h83.834v83.849zM305.927 489.927v-83.849h83.834v83.849zM473.61 489.927v-83.849h83.834v83.849zM641.293 489.927v-83.849h83.834v83.849zM808.975 489.927v-83.849h83.834v83.849zM976.658 489.927v-83.849h43.252v83.849z" />
<glyph unicode="&#xe910;" glyph-name="back" d="M125.29 557.58l119.783 191.91-67.39 42.131-52.393-83.967-52.393 83.967-67.39-42.131zM164.954 623.688v304.391h-79.428v-304.391zM404.606 395.372l-219.88-143.544 415.96-276.496 419.924 274.152-221.468 144.588-198.060-129.304zM405.931 593.93l-223.309-145.784 415.959-276.495 419.92 274.152-224.942 146.842-194.6-127.037zM405.538 498.806l193.028-128.322 194.993 127.294 79.627-51.976-274.212-179.029-271.96 180.767zM598.763 918.666l-416.141-271.672 394.159-262.027c2.452-0.73 4.968-1.221 7.514-1.467 4.562-1.815 9.422-2.769 14.332-2.812 4.896 0.002 9.75 0.909 14.317 2.676 2.555 0.229 5.081 0.705 7.544 1.421l398.014 259.85zM598.763 823.8l274.424-179.165-274.227-179.029-271.944 180.782z" />
<glyph unicode="&#xe911;" glyph-name="front" d="M124.931 932.518l-120.502-179.64 67.087-45.043 53.415 79.593 53.415-79.593 67.087 45.043zM84.551 868.399v-286.046h80.759v286.046zM590.125 535.654l-117.926-76.99 118.886-73.523 118.946 72.24zM399.931 411.486l-232.835-152.004 422.828-281.071 426.881 278.686-233.507 152.445-191.827-116.51zM401.103 315.813l189.989-117.49 190.654 115.794 87.339-57.019-278.761-181.986-276.443 183.76zM396.526 600.41l-229.858-139.61 424.423-262.474 428.483 260.228-231.583 140.652-196.528-119.354zM396.154 505.7l194.937-120.558 196.9 119.592 76.014-46.165-272.528-165.533-270.267 167.14zM591.283 917.587l-424.616-257.896 403.38-249.444c1.836-0.475 4.017-0.844 6.249-1.030l0.147-0.010c4.086-1.525 8.807-2.408 13.734-2.408 0.342 0 0.684 0.004 1.024 0.013l-0.050-0.001c0.384-0.013 0.834-0.021 1.287-0.021 4.794 0 9.393 0.835 13.659 2.369l-0.282-0.088c2.38 0.178 4.574 0.531 6.701 1.053l-0.277-0.057 407.336 247.396z" />
<glyph unicode="&#xe912;" glyph-name="fill" d="M512.004 959.995c-281.689 0-512.004-230.314-512.004-512.004s230.315-511.988 512.004-511.988c281.689 0 512.008 230.298 512.008 511.988s-230.319 512.004-512.008 512.004z" />
<glyph unicode="&#xe913;" glyph-name="outline" d="M512.005 960c-281.689 0-512.005-230.315-512.005-512.005s230.316-511.99 512.005-511.99c281.689 0 512.005 230.301 512.005 511.99s-230.316 512.005-512.005 512.005zM512.005 777.615c183.121 0 329.605-146.499 329.605-329.62s-146.484-329.605-329.605-329.605c-183.121 0-329.62 146.484-329.62 329.605s146.499 329.62 329.62 329.62z" />
<glyph unicode="&#xe914;" glyph-name="arrowCircle" d="M0 497.162v-81.925h851.225v81.925zM978.946 456.195c0-74.1-60.070-134.169-134.17-134.169v0c-74.1 0-134.17 60.070-134.17 134.169v0c0 0 0 0 0 0 0 74.1 60.070 134.17 134.17 134.17v0c74.1 0 134.17-60.070 134.17-134.17 0 0 0 0 0 0v0zM844.769 631.32c-96.236 0-175.128-78.892-175.128-175.128s78.892-175.128 175.128-175.128c96.236 0 175.143 78.892 175.143 175.128s-78.907 175.128-175.143 175.128zM844.769 549.41c51.964 0 93.218-41.254 93.218-93.218s-41.255-93.204-93.218-93.204c-51.964 0-93.203 41.24-93.203 93.204s41.24 93.218 93.203 93.218z" />
<glyph unicode="&#xe915;" glyph-name="arrowSimple" d="M4.094 488.965v-81.925h961.98v81.925zM762.312 792.945l-65.9-48.65 218.774-296.33-204.82-278.34 65.975-48.544 240.62 326.959z" />
<glyph unicode="&#xe916;" glyph-name="arrowTriangle" d="M4.094 488.954v-81.91h929.975v81.91zM1022.974 448.001c0-1.697-1.375-3.072-3.072-3.072s-3.072 1.375-3.072 3.072c0 1.697 1.375 3.072 3.072 3.072s3.072-1.375 3.072-3.072zM1019.902 451.073l-332.928 217.553v-442.035zM685.951 670.522v-445.863l335.803 226.424-1.285 0.847zM687.992 666.742l330.074-215.69-330.074-222.538z" />
<glyph unicode="&#xe917;" glyph-name="pen" d="M850.017 959.998l-308.984-308.155 173.984-179.035 308.984 308.151zM432.297 543.399l-417.725-416.595-14.572-190.804 188.556 11.768 417.725 416.595z" />
<glyph unicode="&#xe918;" glyph-name="line" d="M1019.876 955.876l-269.267-5.943 97.187-97.387-846.286-845.075 74.879-70.018 849.134 838.339 94.353-95.689z" />
<glyph unicode="&#xe919;" glyph-name="note" d="M1.489 958.51v-1021.028h611.337l409.691 409.1v611.928zM77.676 882.323h868.64v-504.144l-365.031-364.496h-503.61zM558.955 400.481v-424.892h76.201v348.691h349.253v76.201z" />
<glyph unicode="&#xe91a;" glyph-name="text" d="M272.292-64v49.51c24.361 3.495 72.176 8.001 86.096 13.505 14.499 6.003 25.23 14.254 32.192 24.755 6.958 10.505 11.305 23.756 13.047 39.761 1.737 16.505 2.628 36.758 2.628 60.764v747.936h-99.143c-34.803 0-61.48-3.495-80.042-10.505-18.562-7.002-34.798-18.003-48.718-33.005-13.341-15.007-24.941-35.26-34.803-60.768-9.858-25.005-17.978-48.761-24.361-71.265h-119.188v263.312h1024v-263.312h-119.188c-11.020 34.008-19.72 59.012-26.103 75.018-6.379 16.005-13.631 29.506-21.751 40.51-7.541 11.504-15.657 21.006-24.357 28.508s-17.983 13.501-27.84 18.003c-9.862 4.502-22.335 7.751-37.413 9.752-14.499 2.497-33.64 3.764-57.418 3.764h-107.7v-747.936c0-26.506 0.891-46.76 2.628-60.764 1.737-13.505 4.944-24.509 9.573-33.009 4.642-8.5 10.147-15.502 16.526-21.006 6.962-5.001 16.241-9.752 27.84-14.254 12.183-3.998 73.481-7.252 93.78-9.752v-49.51z" />
<glyph unicode="&#xe91b;" glyph-name="shape" d="M118.375 922.977v-504.68l63.352 36.708c32.481 18.821 69.422 28.757 107.048 28.772 33.524-0.043 66.56-7.962 96.404-23.096l0.688-0.348 0.704-0.328c15.714-7.256 30.473-16.391 43.948-27.2l11.572-9.284h174.28v499.456zM202.771 838.576h329.2v-330.66h-60.964c-15.179 10.93-31.339 20.45-48.328 28.352-41.497 20.913-87.333 31.852-133.84 31.904h-0.061c-29.279 0-58.221-4.477-86.008-12.856zM296.98 564.072c-163.389 0-296.98-132.683-296.98-295.529s133.591-295.513 296.98-295.513c163.389 0 296.98 132.668 296.98 295.513s-133.591 295.529-296.98 295.529zM296.98 479.683c118.040 0 212.591-94.167 212.591-211.139s-94.551-211.124-212.591-211.124c-118.040 0-212.591 94.152-212.591 211.124s94.551 211.139 212.591 211.139zM715.391 815.713l-226.152-455.18 6.564-17.248c1.784-4.692 3.396-9.446 4.84-14.252l0.104-0.348 0.020-0.045c1.41-4.721 2.654-9.488 3.728-14.296l0.020-0.088 0.020-0.092c0.035-0.156 0.074-0.312 0.109-0.468 0-0.020 0.002-0.023 0-0.033 1.040-4.72 1.916-9.476 2.628-14.256 0.027-0.188 0.053-0.375 0.080-0.564l0.025-0.16 0.025-0.156c0.701-4.824 1.229-9.671 1.592-14.532 0.001-0.020 0-0.029 0-0.045 0-0.031 0-0.063 0-0.096l0.041-0.36c0.359-4.944 0.54-9.899 0.548-14.856-0.027-4.534-0.197-9.065-0.516-13.588v-0.049c-0.309-4.439-0.758-8.87-1.348-13.28l-6.396-47.792h523.004zM715.391 626.033l172.748-347.704h-294.528c-0.127 3.758-0.143 7.521-0.416 11.272 0 0.088 0 0.176-0.020 0.264l-0.041 0.352c-0.509 6.834-1.255 13.646-2.24 20.428-0.037 0.266-0.074 0.531-0.113 0.796l-0.020 0.143-0.020 0.147c-1.003 6.754-2.241 13.471-3.712 20.14l-0.020 0.084-0.020 0.080c-0.059 0.264-0.125 0.528-0.184 0.792-1.501 6.712-3.236 13.369-5.204 19.96l-0.131 0.448-0.020 0.076c-0.19 0.637-0.448 1.252-0.644 1.888z" />
<glyph unicode="&#xe91c;" glyph-name="circle" d="M512.005 960c-282.291 0-512.005-229.699-512.005-511.99s229.714-512.005 512.005-512.005c282.291 0 512.005 229.714 512.005 512.005s-229.714 511.99-512.005 511.99zM512.005 879.223c238.634 0 431.214-192.579 431.214-431.214s-192.58-431.229-431.214-431.229c-238.634 0-431.214 192.595-431.214 431.229s192.58 431.214 431.214 431.214z" />
<glyph unicode="&#xe91d;" glyph-name="romboid" d="M512.005 959.999l-512.005-512.005 512.005-511.99 512.005 511.99zM512.005 844.558l396.548-396.563-396.548-396.548-396.548 396.548z" />
<glyph unicode="&#xe91e;" glyph-name="roundedSquare" d="M255.148 960c-140.655 0-255.148-114.494-255.148-255.148v-513.698c0-140.655 114.494-255.148 255.148-255.148h513.698c140.655 0 255.163 114.494 255.163 255.148v513.698c0 140.655-114.509 255.148-255.163 255.148zM255.148 879.223h513.698c97.3 0 174.372-77.073 174.372-174.372v-513.698c0-97.3-77.072-174.372-174.372-174.372h-513.698c-97.3 0-174.357 77.073-174.357 174.372v513.698c0 97.3 77.057 174.372 174.357 174.372z" />
<glyph unicode="&#xe91f;" glyph-name="bubble" d="M259.579 960c-142.967 0-259.579-115.773-259.579-258.28v-232.885c0-137.045 107.983-252.123 244.608-257.026l1.919-275.758 269.685 270.849 248.279 3.656c0.023 0 0.046 0 0.077 0 142.932 0.039 259.503 115.798 259.503 258.28v232.885c0 142.507-116.612 258.28-259.579 258.28h-464.033zM259.579 878.242h504.912c99.349 0 177.821-78.158 177.821-176.522v-232.885c0-98.364-78.472-176.522-177.821-176.522h-0.302l-282.45-4.154-154.814-155.494-1.133 161.642-67.436-2.009c-97.849-2.917-176.598 78.185-176.598 176.537v232.885c0 98.365 78.472 176.522 177.821 176.522z" />
<glyph unicode="&#xe920;" glyph-name="square" d="M0 960v-1023.994h1024.009v1023.994zM81.033 878.982h861.943v-861.958h-861.943z" />
<glyph unicode="&#xe921;" glyph-name="triangle" d="M511.849 959.969l-511.849-1023.97h1023.697zM511.849 783.407l384.128-768.453h-768.242z" />
<glyph unicode="&#xe922;" glyph-name="logo" d="M535.197 947.681c-76.216-0.001-148.261-18.158-212.468-50.288-11.705 11.467-27.321 17.886-43.576 17.912-34.762-0.002-62.941-28.654-62.94-63.996 0.052-8.124 1.626-16.163 4.636-23.688-0.215 0.286-0.427 0.574-0.636 0.864-74.686-65.37-129.741-153.579-155.28-254.060-33.455-1.509-59.891-29.386-60.152-63.432 0.385-27.707 18.264-52.014 44.296-60.22-0.035-0.922-0.076-1.842-0.076-2.772 0-144.158 59.434-274.024 154.452-365.224-2.995-7.501-4.563-15.512-4.62-23.608 0.001-35.341 28.179-63.99 62.94-63.992 32.685 0.394 59.635 26.16 62.028 59.304l1.624-4.236c141.973 54.423 331.304 169.995 431.912 311.348 7.291-2.893 15.049-4.379 22.876-4.38 0.293 0 0.587 0.020 0.88 0.033 8.259-18.489 15.492-53.401 14.564-79.156-0.412-11.306 8.422-20.804 19.728-21.212 11.306-0.412 20.804 8.422 21.212 19.728 1.162 32.256-5.243 67.884-16.92 94.76 4.771 3.903 4.981 4.658 8.388 9.668 40.421-21.16 82.215-64.999 119.952-115.020-24.528-58.726-60.849-112.229-107.432-156.592 1.603-1.052 3.133-2.202 4.632-3.392-4.992 3.713-10.492 6.664-16.324 8.76 9.652 29.644 11.811 58.566 7.9 84.64-1.545 10.311-10.589 17.816-21.008 17.432-0.766-0.029-1.53-0.098-2.288-0.212-11.191-1.675-18.903-12.11-17.22-23.3 3.205-21.371 1.238-46.076-8.48-72.308-0.771-2.239-1.147-4.596-1.112-6.964-24.959-9.175-41.666-33.173-41.88-60.156 0.177-16.095 6.264-31.542 17.068-43.308-7.936 8.158-13.609 18.328-16.348 29.496-64.78-35.33-136.991-53.83-210.328-53.88-77.23 0.001-149.896 20.042-213.376 55.316-2.552-12.636-9.118-24.11-18.72-32.712 68.973-38.584 148.041-60.511 232.096-60.512 79.724 0.44 158.114 21.024 228.272 59.928 11.891-12.061 28-18.837 44.796-18.844 35.047 0 63.458 28.884 63.46 64.516-0.113 14.861-5.279 29.055-14.364 40.344 3.403-3.165 6.561-6.591 9.208-10.44 98.375 94.166 154.422 225.993 154.824 364.156 0 89.835-23.143 174.082-63.524 246.928 14.994 11.845 23.928 29.938 24.312 49.24 0.001 35.344-28.18 63.996-62.944 63.996-14.684-0.312-28.799-5.834-39.9-15.612 1.355 1.383 2.777 2.699 4.26 3.944-10.723 11.321-21.977 22.107-33.696 32.348 5.654 9.413 8.819 20.153 9.188 31.176 0.001 35.344-28.18 63.996-62.944 63.996-19.535-0.439-37.762-10.078-49.332-26.088-63.979 31.856-135.75 49.772-211.616 49.772zM535.197 909.773c71.259 0.001 138.602-17.121 198.456-47.472-0.163-0.764-0.313-1.531-0.448-2.3 0.053-0.646 0.116-1.292 0.188-1.936-45.106-9.559-105.044-39.469-155.668-69.568-11.957 14.627-29.693 23.090-48.4 23.092-15.607 0-30.654-5.915-42.22-16.568-40.864 27.553-106.519 54.557-146.144 66.548-0.078 0.874-0.174 1.746-0.288 2.616 58.874 29.134 124.807 45.588 194.524 45.588zM796.144 890.445c16.538 0.001 29.945-13.63 29.944-30.444 0.001-16.814-13.406-30.445-29.944-30.444-16.536 0.001-29.941 13.631-29.94 30.444-0.001 16.813 13.403 30.443 29.94 30.444zM279.153 881.753c16.538 0.001 29.945-13.63 29.944-30.444-0.001-16.813-13.407-30.441-29.944-30.44-16.535 0.001-29.939 13.629-29.94 30.44-0.001 16.812 13.404 30.442 29.94 30.444zM333.421 820.913c36.442-12.185 103.516-42.031 133.932-62.348-0.632-3.622-0.956-7.293-0.968-10.972 0.2-7.184 1.589-14.281 4.108-20.996-40.961-32.303-82.084-71.777-115.064-122.664-23.938-0.184-45.702-14.159-56.152-36.056-15.153 3.314-30.516 5.065-45.62 5.5-21.816 0.627-43.078-1.251-62.332-4.236s-36.487-7.151-50.372-11.4c-9.443-2.888-16.887-5.405-23.304-8.404-4.624 6.374-10.372 11.819-16.952 16.060 23.642 92.659 74.53 173.939 143.416 234.236 10.199-7.589 22.409-11.88 35.040-12.316 22.729 0.413 43.473 13.255 54.268 33.596zM748.12 819.109c11.871-14.528 29.447-22.982 48.024-23.1 9.232 0.182 18.312 2.427 26.596 6.576 13.279-11.369 25.979-23.422 37.892-36.272-2.727-7.068-4.195-14.573-4.336-22.164 0.484-21.406 11.466-41.148 29.26-52.6-17.15-83.17-53.956-137.167-102.944-206.508-0.799 0.070-1.599 0.123-2.4 0.16-7.831-0.082-2.118-0.544-3.184 1.772-47.946 82.285-108.12 162.257-193.284 230.408 6.572 9.922 8.106 18.257 8.524 30.212-0.001 3.198-0.238 6.391-0.708 9.552l3.524-5.876c51.395 30.837 121.226 62.019 153.036 67.84zM529.325 778.037c16.538 0.001 29.945-13.63 29.944-30.444s-13.407-30.441-29.944-30.44c-16.535 0.001-29.939 13.629-29.94 30.44-0.001 16.813 13.403 30.443 29.94 30.444zM919.236 774.593c16.538 0.001 29.945-13.63 29.944-30.444s-13.407-30.441-29.944-30.44c-16.535 0.001-29.939 13.629-29.94 30.44s13.404 30.442 29.94 30.444zM564.073 697.253c79.66-64.235 128.132-135.813 180.92-218.968 3.728-5.327-3.191-6.57-8.020-10.968-13.691 12.461-31.897 22.414-53.22 32.28-28.035 12.972-61.564 24.682-96.44 34.516-52.314 14.751-106.734 25.498-150.696 28.284v-0.020c-7.703 0.488-15.029 0.696-22.020 0.676-4.001 10.506-10.658 19.752-19.3 26.804 28.913 42.171 64.366 76.057 100.84 104.792 9.815-6.794 21.321-10.627 33.188-11.056 20.376 0.483 27.607 3.765 34.748 13.652zM924.572 678.213c38.037-67.792 59.932-146.354 59.932-230.232-0.018-59.208-6.102-108.932-27.016-162.78-29.196 55.784-94.085 94.135-121.432 106.868 6.533 10.246 7.097 16.643 7.1 29.136-0.051 18.422-7.907 35.928-21.56 48.040 45.913 65.268 84.356 124.236 102.976 208.968zM355.905 570.401c16.538 0.001 29.945-13.63 29.944-30.444s-13.407-30.441-29.944-30.44c-16.535 0.001-29.939 13.629-29.94 30.44s13.404 30.442 29.94 30.444zM67.721 541.437c16.538 0.001 29.945-13.63 29.944-30.444-0.001-16.813-13.407-30.441-29.944-30.44-16.535 0.001-29.939 13.629-29.94 30.44-0.001 16.812 13.404 30.442 29.94 30.444zM252.421 532.273c14.302-0.416 28.518-2.042 41.872-5.224 1.196-5.883 3.201-11.565 5.956-16.88-62.432-98.661-100.489-220.032-65.488-395.024-2.456-1.075-4.842-2.308-7.144-3.692-87.222 84.231-141.728 203.835-141.728 336.548 0 0.902 0.054 1.791 0.076 2.688 26.22 8.070 44.295 32.455 44.7 60.304-0.024 0.139-0.048 0.28-0.072 0.42l0.744-1.156c0.344 0.224 9.667 4.664 21.604 8.316s27.46 7.417 44.66 10.084c17.2 2.666 36.073 4.162 54.82 3.616zM416.285 521.986c39.121-0.565 102.214-11.031 159.916-27.3 33.277-9.383 65.144-20.594 90.364-32.264s43.667-24.912 49.176-32.26l3.848 2.884c-1.137-3.864-1.913-7.828-2.316-11.84 0.010-11.538 3.088-22.859 8.908-32.764-90.672-129.052-274.195-244.475-409.716-297.644-8.977 15.354-23.858 26.194-41.044 29.9-33.286 163.369-1.025 269.341 55.208 360.7 7.965-3.568 16.572-5.418 25.276-5.432 27.943 0.020 52.532 18.754 60.38 46.020zM780.212 451.65c16.538 0.001 29.945-13.63 29.944-30.444s-13.407-30.441-29.944-30.44c-16.535 0.001-29.939 13.629-29.94 30.44s13.404 30.442 29.94 30.444zM261.773 89.614c16.538 0.001 29.945-13.63 29.944-30.444s-13.408-30.441-29.944-30.44c-16.535 0.001-29.939 13.629-29.94 30.44s13.404 30.442 29.94 30.444zM808.264 84.614c16.672 0 30.188-13.741 30.188-30.692 0.002-16.952-13.514-30.696-30.188-30.696s-30.19 13.744-30.188 30.696c0 16.951 13.516 30.692 30.188 30.692z" />
</font>
</defs>
</svg>
