<?xml version="1.0" encoding="UTF-8"?>
<svg width="182.19mm" height="109.55mm" version="1.1" viewBox="0 0 182.19 109.55" xmlns="http://www.w3.org/2000/svg">
 <g transform="translate(217.4 686.38)">
  <g transform="translate(-170.36 -154.78)"></g>
  <g transform="translate(-200.26 -236.38)"></g>
  <g transform="matrix(1.2158 0 0 1.2158 4074.9 -2926.1)" stroke-width=".12596">
   <path d="m-3517.6 1881.1-4.8381-4.8382 1.2243-0.3993 3.4928 4.5094c0.038 0.2419 0.079 0.4849 0.121 0.7281z" opacity=".1" style="isolation:isolate"/>
   <path d="m-3519.4 1869.4 1.392 0.1491s1.3664 2.651 1.2672 3.204c-0.099 0.553-0.3153 0.2172 0.2997 1.1019s2.3602 3.1715 2.5763 3.5072c0.4892 0.5501 0.7598 1.5231 1.2432 3.1108 0.1696 0.7034 0.3404 1.7545 0.2382 1.8775-0.8462 1.0191-1.5271 0.8098-2.6899 0.2056-1.1627-0.6043-7.0452-6.6311-7.0452-6.6311z" fill="#575a89"/>
  </g>
  <rect x="-217.26" y="-686.25" width="181.93" height="109.29" opacity="0" stroke-width=".26458"/>
 </g>
</svg>
