<?xml version="1.0" encoding="UTF-8" standalone="no"?>
<!-- Created with Inkscape (http://www.inkscape.org/) -->

<svg
   width="182.19173mm"
   height="109.55038mm"
   viewBox="0 0 182.19172 109.55038"
   version="1.1"
   id="svg5"
   inkscape:version="1.1.2 (b8e25be833, 2022-02-05)"
   sodipodi:docname="arm1.svg"
   xmlns:inkscape="http://www.inkscape.org/namespaces/inkscape"
   xmlns:sodipodi="http://sodipodi.sourceforge.net/DTD/sodipodi-0.dtd"
   xmlns="http://www.w3.org/2000/svg"
   xmlns:svg="http://www.w3.org/2000/svg">
  <sodipodi:namedview
     id="namedview7"
     pagecolor="#ffffff"
     bordercolor="#666666"
     borderopacity="1.0"
     inkscape:pageshadow="2"
     inkscape:pageopacity="0.0"
     inkscape:pagecheckerboard="0"
     inkscape:document-units="mm"
     showgrid="false"
     inkscape:snap-global="false"
     inkscape:zoom="0.37014941"
     inkscape:cx="765.90693"
     inkscape:cy="367.4192"
     inkscape:window-width="1920"
     inkscape:window-height="1017"
     inkscape:window-x="-8"
     inkscape:window-y="-8"
     inkscape:window-maximized="1"
     inkscape:current-layer="layer1"
     inkscape:snap-midpoints="false"
     inkscape:snap-bbox="true"
     inkscape:snap-bbox-midpoints="true" />
  <defs
     id="defs2" />
  <g
     inkscape:groupmode="layer"
     id="layer3"
     inkscape:label="Layer 2"
     transform="translate(-87.80331,42.107078)"
     style="display:inline;opacity:0.367886"
     sodipodi:insensitive="true" />
  <g
     inkscape:label="Layer 1"
     inkscape:groupmode="layer"
     id="layer1"
     transform="translate(-110.3827,-36.533156)">
    <rect
       style="opacity:0;fill:#000000;stroke:#ff0000;stroke-width:16.4377;stroke-linecap:round;stroke-dashoffset:140"
       id="rect1168"
       width="1272.3467"
       height="733.38629"
       x="-710.15509"
       y="-373.12653" />
    <g
       id="g10272">
      <g
         id="g9350"
         transform="translate(-28.304693,-21.22852)">
        <path
           id="path7611"
           style="fill:#a9c7d6;fill-opacity:1;stroke-width:0.212548;stop-color:#000000"
           d="m 158.52591,-67.439605 87.5045,8.936285 61.98949,70.777641 -95.86093,29.312605 z"
           sodipodi:nodetypes="ccccc" />
        <path
           d="M 288.98085,22.422096 H 158.48626 v -78.120915 h 130.49459 z"
           fill="#e5e5e5"
           id="path7613"
           style="fill:#ffffff;fill-opacity:1;stroke-width:0.201721"
           sodipodi:nodetypes="ccccc" />
        <g
           id="g7623"
           transform="matrix(0.57879217,0,0,0.57879217,2164.4275,-1720.6912)">
          <path
             d="m -3450.3207,2953.9978 h 28.0173 a 1.1687572,1.1687572 0 0 1 1.1674,1.1674 v 29.1789 a 1.1687572,1.1687572 0 0 1 -1.1674,1.1674 h -28.0173 a 1.1687572,1.1687572 0 0 1 -1.1674,-1.1674 v -29.1789 a 1.1687572,1.1687572 0 0 1 1.1674,-1.1674 z m 28.0173,31.0467 a 0.7011961,0.7011961 0 0 0 0.7005,-0.7004 v -29.1789 a 0.7011961,0.7011961 0 0 0 -0.7005,-0.7004 h -28.0173 a 0.7011961,0.7011961 0 0 0 -0.7004,0.7004 v 29.1789 a 0.7011961,0.7011961 0 0 0 0.7004,0.7004 z"
             fill="#3f3d56"
             id="path7615"
             style="stroke-width:0.264583" />
          <path
             d="m -3428.2733,2979.4943 a 0.79255143,0.79255143 0 1 0 0,-1.5851 h -16.0774 a 0.79255143,0.79255143 0 1 0 0,1.5851 z"
             fill="#e6e6e6"
             id="path7617"
             style="stroke-width:0.264583" />
          <path
             d="m -3428.2733,2974.8247 a 0.79255143,0.79255143 0 1 0 0,-1.5851 h -16.0774 a 0.79255143,0.79255143 0 1 0 0,1.5851 z"
             fill="#e6e6e6"
             id="path7619"
             style="stroke-width:0.264583" />
          <path
             d="m -3436.3121,2960.015 a 4.9887451,4.9887451 0 1 1 -4.9887,4.9888 4.994394,4.994394 0 0 1 4.9887,-4.9888 z"
             fill="#6c63ff"
             id="path7621"
             style="fill:#285b9e;fill-opacity:1;stroke-width:0.264583" />
        </g>
        <g
           id="g7637"
           transform="matrix(0.57879217,0,0,0.57879217,2163.4868,-1587.6342)">
          <path
             d="m -3273.5688,2696.7538 h -55.6305 a 1.1687572,1.1687572 0 0 1 -1.1674,-1.1673 v -28.9455 a 1.1687572,1.1687572 0 0 1 1.1674,-1.1674 h 55.6305 a 1.1687572,1.1687572 0 0 1 1.1674,1.1674 v 28.9454 a 1.1687572,1.1687572 0 0 1 -1.1674,1.1674 z m -55.6305,-30.8132 a 0.7011961,0.7011961 0 0 0 -0.7004,0.7004 v 28.9454 a 0.70119874,0.70119874 0 0 0 0.7004,0.7005 h 55.6305 a 0.70119874,0.70119874 0 0 0 0.7004,-0.7005 v -28.9454 a 0.7011961,0.7011961 0 0 0 -0.7004,-0.7004 z"
             fill="#3f3d56"
             id="path7625"
             style="stroke-width:0.264583" />
          <circle
             cx="-3319.8713"
             cy="2675.7275"
             r="4.7553062"
             fill="#6c63ff"
             id="circle7627"
             style="fill:#285b9e;fill-opacity:1;stroke-width:0.264583" />
          <path
             d="m -3308.8888,2672.5573 a 0.79255143,0.79255143 0 1 0 0,1.5851 h 29.9548 a 0.7925501,0.7925501 0 1 0 0,-1.5851 z"
             fill="#e6e6e6"
             id="path7629"
             style="stroke-width:0.264583" />
          <path
             d="m -3308.8888,2677.3126 a 0.79255143,0.79255143 0 1 0 0,1.5851 h 16.0774 a 0.7925501,0.7925501 0 1 0 0,-1.5851 z"
             fill="#e6e6e6"
             id="path7631"
             style="stroke-width:0.264583" />
          <path
             d="m -3323.5188,2684.9149 c -0.6028,0 -1.0934,0.3556 -1.0934,0.7926 0,0.4369 0.4906,0.7925 1.0934,0.7925 h 44.1413 c 0.6029,0 1.0935,-0.3556 1.0935,-0.7925 0,-0.437 -0.4906,-0.7926 -1.0935,-0.7926 z"
             fill="#e6e6e6"
             id="path7633"
             style="stroke-width:0.264583" />
          <path
             d="m -3323.5188,2689.6702 c -0.6028,0 -1.0934,0.3556 -1.0934,0.7926 0,0.4369 0.4906,0.7925 1.0934,0.7925 h 44.1413 c 0.6029,0 1.0935,-0.3556 1.0935,-0.7925 0,-0.437 -0.4906,-0.7926 -1.0935,-0.7926 z"
             fill="#e6e6e6"
             id="path7635"
             style="stroke-width:0.264583" />
        </g>
        <g
           id="g7653"
           transform="matrix(0.57879217,0,0,0.57879217,2370.6413,-1620.0004)">
          <g
             id="g7643">
            <path
               d="m -3702.6025,2788.5308 h -54.9906 a 4.6354708,4.6354708 0 0 1 -4.6303,-4.6302 v -66.4511 a 3.4668539,3.4668539 0 0 1 3.4629,-3.463 h 57.27 a 3.5222444,3.5222444 0 0 1 3.5182,3.5183 v 66.3958 a 4.6354497,4.6354497 0 0 1 -4.6302,4.6302 z m -56.158,-74.0151 a 2.937039,2.937039 0 0 0 -2.9337,2.9338 v 66.4511 a 4.1056559,4.1056559 0 0 0 4.1011,4.1011 h 54.9906 a 4.1056771,4.1056771 0 0 0 4.101,-4.1011 v -66.3958 a 2.9924375,2.9924375 0 0 0 -2.989,-2.9891 z"
               fill="#cccccc"
               id="path7639"
               style="stroke-width:0.264583" />
            <path
               d="m -3753.3598,2783.9006 h 46.5239 a 4.2333333,4.2333333 0 0 0 4.2334,-4.2333 v -56.7658 a 4.2333333,4.2333333 0 0 0 -4.2334,-4.2333 h -46.5239 a 4.2333333,4.2333333 0 0 0 -4.2333,4.2333 v 56.7658 a 4.2333333,4.2333333 0 0 0 4.2333,4.2333 z"
               fill="#e6e6e6"
               id="path7641"
               style="stroke-width:0.264583" />
          </g>
          <path
             d="m -3717.2655,2730.25 h -25.6646 a 1.7198,1.7198 0 0 1 0,-3.4396 h 25.6646 a 1.7198,1.7198 0 1 1 0,3.4396 z"
             fill="#ffffff"
             id="path7645"
             style="stroke-width:0.264583" />
          <path
             d="m -3717.2655,2767.5563 h -25.6646 a 1.7198,1.7198 0 0 1 0,-3.4396 h 25.6646 a 1.7198,1.7198 0 1 1 0,3.4396 z"
             fill="#ffffff"
             id="path7647"
             style="stroke-width:0.264583" />
          <path
             d="m -3717.2655,2775.7584 h -25.6646 a 1.7198,1.7198 0 0 1 0,-3.4396 h 25.6646 a 1.7198,1.7198 0 1 1 0,3.4396 z"
             fill="#ffffff"
             id="path7649"
             style="stroke-width:0.264583" />
          <circle
             cx="-3729.9656"
             cy="2745.199"
             r="10.318749"
             fill="#ffffff"
             id="circle7651"
             style="stroke-width:0.264583" />
        </g>
        <g
           id="g7669"
           transform="matrix(1.2157713,0,0,1.2157713,4374.8252,-2301.0521)">
          <g
             id="g7659"
             transform="matrix(0.47606995,0,0,0.47606995,-1667.0457,523.53616)">
            <path
               d="m -3629.5334,2868.1886 -4.5076,0.9508 a 0.26462302,0.26462302 0 0 0 -0.1814,0.3786 l 0.42,0.8275 -20.3847,10.3471 a 0.26457674,0.26457674 0 1 0 0.2396,0.4718 l 20.3846,-10.3471 0.42,0.8275 a 0.264541,0.264541 0 0 0 0.4127,0.077 l 3.4282,-3.0775 a 0.26458333,0.26458333 0 0 0 -0.2314,-0.4558 z"
               fill="#e6e6e6"
               id="path7655"
               style="stroke-width:0.264583" />
            <path
               d="m -3629.5334,2893.9078 -4.5076,-0.9507 a 0.26462302,0.26462302 0 0 1 -0.1814,-0.3786 l 0.42,-0.8275 -20.3847,-10.3471 a 0.26457674,0.26457674 0 1 1 0.2396,-0.4718 l 20.3846,10.3471 0.42,-0.8275 a 0.264541,0.264541 0 0 1 0.4127,-0.077 l 3.4282,3.0776 a 0.26458333,0.26458333 0 0 1 -0.2314,0.4557 z"
               fill="#e6e6e6"
               id="path7657"
               style="stroke-width:0.264583" />
          </g>
          <g
             id="g7665"
             transform="matrix(0.47606995,0,0,0.47606995,-1709.7202,542.22202)">
            <path
               d="m -3531.6809,2832.9669 a 5.8208333,5.8208333 0 1 1 5.8209,-5.8208 5.8274187,5.8274187 0 0 1 -5.8209,5.8208 z m 0,-11.1125 a 5.2916666,5.2916666 0 1 0 5.2917,5.2917 5.2976885,5.2976885 0 0 0 -5.2917,-5.2917 z"
               fill="#e6e6e6"
               id="path7661"
               style="stroke-width:0.264583" />
            <path
               id="path7663"
               data-name="Path 395"
               d="m -3532.2814,2830.4319 a 0.77532176,0.77532176 0 0 1 -0.4665,-0.155 l -0.01,-0.01 -1.7569,-1.3439 a 0.78079359,0.78079359 0 1 1 0.9501,-1.2393 l 1.1379,0.8727 2.689,-3.5082 a 0.78040441,0.78040441 0 0 1 1.0942,-0.1445 l 2e-4,2e-4 -0.017,0.023 0.017,-0.023 a 0.78134368,0.78134368 0 0 1 0.1443,1.0944 l -3.1629,4.1245 a 0.78088066,0.78088066 0 0 1 -0.6209,0.3044 z"
               fill="#e6e6e6"
               style="stroke-width:0.264583" />
          </g>
          <path
             d="m -3388.1587,1903.1472 h -4.5345 a 1.2596017,1.2596017 0 0 1 0,-2.5192 h 4.5345 a 1.2596017,1.2596017 0 0 1 0,2.5192 z"
             fill="#6c63ff"
             id="path7667"
             style="fill:#285b9e;fill-opacity:1;stroke-width:0.12596" />
        </g>
        <path
           d="M 288.98085,22.422096 H 158.48626 V -55.698819 H 288.98085 Z M 160.60433,19.956504 H 286.86278 V -53.233227 H 160.60433 Z"
           fill="#e5e5e5"
           id="path7671"
           style="stroke-width:0.201721" />
        <path
           d="M 192.19238,10.408882 H 180.65129 A 0.8964314,0.8964314 0 0 1 179.75597,9.513326 V 4.5387619 a 6.6659145,6.6659145 0 1 1 13.33181,0 V 9.513326 a 0.8964314,0.8964314 0 0 1 -0.8954,0.895556 z"
           fill="#2f2e41"
           id="path7673"
           style="stroke-width:0.272567" />
        <g
           id="g9172"
           transform="translate(-142.36384,-133.55101)">
          <path
             d="m 337.77261,162.04232 c -0.14171,0 -0.28374,0 -0.42593,-0.0185 -1.7209,-0.14356 -3.24692,-1.16267 -4.03884,-2.69736 l -5.02767,-9.67704 c -1.62924,-3.13846 2.8916,-5.75492 4.80129,-2.77873 l 4.63845,10.40759 c 0.4828,1.95243 1.06152,3.65742 0.0522,4.76377 z"
             fill="#6c63ff"
             id="path5679"
             style="fill:#285b9e;fill-opacity:1;stroke-width:0.272567"
             sodipodi:nodetypes="ccccccc" />
          <g
             id="g5683"
             transform="matrix(0.57879217,0,0,0.57879217,2294.9073,-1429.0346)" />
          <g
             id="g6643"
             transform="matrix(0.80333377,0,0,0.80333377,3990.3228,-2030.7268)" />
        </g>
        <g
           id="g7701"
           transform="matrix(0.80333377,0,0,0.80333377,4042.5035,-2202.994)">
          <polygon
             points="528.489,410.991 560.665,423.5 563.908,415.158 533.276,398.679 "
             fill="#ffb8b8"
             id="polygon7675"
             transform="matrix(0.33929565,0,0,0.33929565,-4933.6602,2643.667)" />
          <path
             d="m -4737.5333,2779.9751 a 3.8092348,3.8092348 0 0 0 -4.9331,2.1714 l -0.7422,1.9078 -1.1446,2.9451 -0.2797,0.7224 3.6673,1.4265 3.5476,-9.1273 z"
             fill="#2f2e41"
             id="path7677"
             style="stroke-width:0.339295" />
          <path
             d="m -4744.3526,2781.9117 -0.4787,1.269 -1.1943,3.1677 -0.029,0.08 c -3.043,0.391 -6.3789,-0.3755 -9.4642,-1.5662 a 38.46968,38.46968 0 0 1 -3.6224,-1.6164 c -1.7449,-0.8817 -3.3071,-1.8121 -4.5534,-2.608 -1.8766,-1.2044 -3.0369,-2.1088 -3.0369,-2.1088 0,0 -0.3065,0.2773 -0.8613,0.7522 -0.7434,0.636 -1.9314,1.6293 -3.4362,2.7987 q -0.8611,0.6738 -1.8489,1.4096 c -4.8552,3.6011 -11.0859,-6.0082 -11.0859,-6.0082 0,0 1.7524,-1.1157 2.21,-1.3323 1.4741,-0.6974 4.9372,-2.343 7.925,-3.8055 1.5393,-0.7545 2.9505,-1.4621 3.8981,-1.9648 3.3552,-1.7864 7.526,1.5938 7.526,1.5938 z"
             fill="#2f2e41"
             id="path7679"
             style="stroke-width:0.339295" />
          <path
             d="m -4744.3526,2781.9117 -0.4787,1.269 -1.1943,3.1677 -0.029,0.08 c -3.043,0.391 -6.3789,-0.3755 -9.4642,-1.5662 a 38.46968,38.46968 0 0 1 -3.6224,-1.6164 c -1.7449,-0.8817 -3.3071,-1.8121 -4.5534,-2.608 -1.8766,-1.2044 -3.0369,-2.1088 -3.0369,-2.1088 0,0 -0.3065,0.2773 -0.8613,0.7522 -0.7434,0.636 -1.9314,1.6293 -3.4362,2.7987 q -0.8611,0.6738 -1.8489,1.4096 c -4.8552,3.6011 -11.0859,-6.0082 -11.0859,-6.0082 0,0 1.7524,-1.1157 2.21,-1.3323 1.4741,-0.6974 4.9372,-2.343 7.925,-3.8055 1.5393,-0.7545 2.9505,-1.4621 3.8981,-1.9648 3.3552,-1.7864 7.526,1.5938 7.526,1.5938 z"
             opacity="0.14"
             id="path7681"
             style="stroke-width:0.339295" />
          <polygon
             points="526.958,420.289 558.077,435.233 561.951,427.165 532.676,408.381 "
             fill="#ffb8b8"
             id="polygon7683"
             transform="matrix(0.33929565,0,0,0.33929565,-4933.6602,2643.667)" />
          <path
             d="m -4737.8616,2784.4307 a 3.8092416,3.8092416 0 0 0 -5.085,1.7858 l -0.8869,1.8455 -1.3672,2.8485 -0.3344,0.6985 3.5471,1.7042 4.238,-8.828 z"
             fill="#2f2e41"
             id="path7685"
             style="stroke-width:0.339295" />
          <path
             d="m -4744.8093,2785.8377 -0.5748,1.2285 -1.434,3.0666 -0.035,0.077 c -3.064,0.1559 -6.331,-0.8645 -9.3159,-2.2887 a 38.469598,38.469598 0 0 1 -3.4875,-1.89 c -1.672,-1.0131 -3.1582,-2.0608 -4.3395,-2.9501 -1.7786,-1.3449 -2.866,-2.3356 -2.866,-2.3356 0,0 -0.3269,0.2526 -0.9165,0.6836 -0.79,0.577 -2.0508,1.4762 -3.6411,2.5263 q -0.9102,0.6057 -1.9519,1.2634 c -5.1174,3.2175 -12.3946,7.1362 -18.5846,7.9634 -10.8714,1.4539 -8.3127,-13.0536 -8.3127,-13.0536 l 8.6522,-4.4931 3.6733,0.7455 4.0894,0.8272 1.4491,0.2948 c 0,0 0.275,-0.1044 0.7479,-0.2848 1.5234,-0.5822 5.1026,-1.9569 8.1939,-3.1854 1.5927,-0.6342 3.054,-1.231 4.0373,-1.6596 3.4828,-1.5233 7.3813,2.1673 7.3813,2.1673 z"
             fill="#2f2e41"
             id="path7687"
             style="stroke-width:0.339295" />
          <path
             d="m -4816.1006,2793.5283 a 2.3226416,2.3226416 0 0 0 1.6179,-3.1729 l 3.7156,-3.7902 -1.7527,-2.8196 -5.1717,5.4262 a 2.3352261,2.3352261 0 0 0 1.5909,4.3565 z"
             fill="#ffb8b8"
             id="path7689"
             style="stroke-width:0.339295" />
          <circle
             cx="-4798.0649"
             cy="2749.7554"
             r="5.7926826"
             fill="#ffb8b8"
             id="circle7691"
             style="stroke-width:0.339295" />
          <path
             d="m -4805.6012,2765.8353 5.0461,14.3058 -0.03,0.05 c -0.7018,1.1601 -0.9312,2.096 -0.6634,2.7064 a 1.1793136,1.1793136 0 0 0 0.7478,0.645 l 11.9411,-8.3466 -0.418,-3.3452 0.023,-0.038 c 1.1541,-1.8468 1.5279,-3.5192 1.111,-4.9706 a 4.7973656,4.7973656 0 0 0 -2.2777,-2.7471 l -0.041,-0.032 -5.9558,-7.2489 -7.9616,1.4144 z"
             fill="#6c63ff"
             id="path7693"
             style="fill:#285b9e;fill-opacity:1;stroke-width:0.339295" />
          <path
             d="m -4813.2748,2790.9455 -3.3805,-4.1605 8.1492,-13.4522 3.7993,-11.7439 0.118,0.038 -0.118,-0.038 a 4.7177532,4.7177532 0 1 1 8.4126,4.0712 l -6.975,10.4501 z"
             fill="#6c63ff"
             id="path7695"
             style="fill:#285b9e;fill-opacity:1;stroke-width:0.339295" />
          <path
             d="m -4789.8382,2748.5839 h -8.7847 l -0.089,-1.2613 -0.4502,1.2613 h -1.3527 l -0.1786,-2.4997 -0.8928,2.4997 h -2.6172 v -0.1241 a 6.5713186,6.5713186 0 0 1 6.5639,-6.564 h 1.2386 a 6.5713694,6.5713694 0 0 1 6.5639,6.564 z"
             fill="#2f2e41"
             id="path7697"
             style="stroke-width:0.339295" />
          <path
             d="m -4798.6948,2756.4277 a 1.138554,1.138554 0 0 1 -0.1972,-0.018 l -6.4326,-1.135 v -10.6311 h 7.081 l -0.1753,0.2045 c -2.4392,2.8446 -0.6016,7.4573 0.7108,9.9535 a 1.0981337,1.0981337 0 0 1 -0.088,1.1659 1.1101754,1.1101754 0 0 1 -0.8994,0.4596 z"
             fill="#2f2e41"
             id="path7699"
             style="stroke-width:0.339295" />
        </g>
        <polygon
           points="799.366,704.465 800.971,677.187 816.215,677.187 813.808,706.872 "
           fill="#ffb8b8"
           id="polygon7703"
           transform="matrix(0.15313876,0,0,0.15313876,172.86136,-69.964501)"
           style="fill:#a0616a;fill-opacity:1" />
        <polygon
           points="939.992,684.589 929.131,659.516 942.738,652.646 953.968,680.229 "
           fill="#ffb8b8"
           id="polygon7705"
           transform="matrix(0.15313876,0,0,0.15313876,172.86136,-69.964501)"
           style="fill:#a0616a;fill-opacity:1" />
        <path
           d="m 317.75899,30.544684 -2.70289,1.105709 -12.9005,-16.954841 -4.05443,19.903558 -2.70289,-0.491399 c -1.734,-17.159531 -3.14787,-34.66208516 -1.41299,-42.9401183 l 10.01324,-0.4299443 4.54582,14.4976039 2.21158,9.8288687 z"
           fill="#2f2e41"
           id="path7707"
           style="stroke-width:0.153139" />
        <path
           d="m 297.36524,41.663306 v 0 a 1.9405515,1.9405515 0 0 1 -1.20299,-0.127811 l -1.31369,-0.591253 c -1.10162,-0.05704 -1.85161,0.162916 -2.46503,-0.637446 a 1.6073858,1.6073858 0 0 1 -0.18758,-1.620565 v 0 a 1.6185006,1.6185006 0 0 1 1.32172,-0.96159 l 1.80445,-1.137039 0.0947,0.852337 c 0.82471,0.467139 1.80381,0.265422 2.8414,-0.189506 l 0.56627,1.982306 a 1.9405545,1.9405545 0 0 1 -1.45926,2.430567 z"
           fill="#2f2e41"
           id="path7709"
           style="stroke-width:0.153139" />
        <path
           d="m 319.82661,37.597312 v 0 a 1.9405498,1.9405498 0 0 1 -1.17929,0.269679 l -1.43451,-0.13255 c -1.06024,0.304223 -1.69841,0.755295 -2.53838,0.19746 a 1.6073827,1.6073827 0 0 1 -0.70372,-1.471708 v 0 a 1.6185022,1.6185022 0 0 1 0.93781,-1.338755 l 1.33739,-1.661375 0.3664,0.775378 c 0.93179,0.174163 1.79232,-0.334669 2.62586,-1.101773 l 1.17938,1.690938 a 1.9405545,1.9405545 0 0 1 -0.59094,2.772706 z"
           fill="#2f2e41"
           id="path7711"
           style="stroke-width:0.153139" />
        <circle
           cx="300.31277"
           cy="-31.131729"
           r="4.4230089"
           fill="#ffb8b8"
           id="circle7713"
           style="fill:#a0616a;fill-opacity:1;stroke-width:0.153139" />
        <polygon
           points="829.853,306.53 825.04,275.241 851.515,269.625 867.561,314.553 "
           fill="#ffb8b8"
           id="polygon7715"
           transform="matrix(0.15313876,0,0,0.15313876,172.86136,-69.964501)"
           style="fill:#a0616a;fill-opacity:1" />
        <g
           id="g5677"
           transform="matrix(0.57879217,0,0,0.57879217,2236.8668,-1562.477)">
          <path
             d="m -3403.4855,2682.1828 a 0.79255143,0.79255143 0 0 0 0,1.5851 h 16.0775 a 0.79255143,0.79255143 0 0 0 0,-1.5851 z"
             fill="#e6e6e6"
             id="path5671"
             style="stroke-width:0.264583" />
          <path
             d="m -3403.4855,2686.8523 a 0.79255143,0.79255143 0 1 0 0,1.5851 h 16.0775 a 0.7925501,0.7925501 0 1 0 0,-1.5851 z"
             fill="#e6e6e6"
             id="path5673"
             style="stroke-width:0.264583" />
        </g>
        <path
           d="m 304.73567,-17.002713 h -5.65162 l 0.39629,-3.68674 a 2.5575459,2.5575459 0 0 1 2.42767,-2.450088 v 0 a 2.5575429,2.5575429 0 0 1 2.6833,2.454105 z"
           fill="#6c63ff"
           id="path7721"
           style="fill:#575a89;fill-opacity:1;stroke-width:0.153139" />
        <circle
           cx="305.78665"
           cy="-37.342072"
           r="1.6624912"
           fill="#2f2e41"
           id="circle7723"
           style="stroke-width:0.153139" />
        <path
           d="m 304.0738,-37.749129 a 1.6611818,1.6611818 0 0 1 1.6617,-1.553809 c -0.0346,-0.008 -0.0683,-0.0096 -0.10339,-0.01205 a 1.6625121,1.6625121 0 0 0 -0.21337,3.318171 c 0.0353,0 0.0691,0 0.10403,0 a 1.6611835,1.6611835 0 0 1 -1.44897,-1.753839 z"
           fill="#2f2e41"
           id="path7725"
           style="stroke-width:0.153139" />
        <path
           d="m 304.0644,-37.039223 c -1.48271,-1.229985 -5.7354,0.333383 -6.00982,1.160255 -2.00504,0.273213 -3.52302,1.443028 -3.52302,3.52294 v 1.6e-4 c 1.19207,0.488266 2.54777,0.428097 4.01321,0 2.33618,1.903821 2.49628,4.297113 1.07559,7.046041 l 1.74789,0.03454 2.16659,-3.166501 0.10355,3.21197 4.00663,-0.08041 v -4.602942 a 9.6234558,9.6234558 0 0 0 -1.02754,-4.408856 c -0.62427,-1.212954 -1.59326,-1.921253 -2.55308,-2.717518 z"
           fill="#2f2e41"
           id="path7727"
           style="stroke-width:0.153139" />
        <ellipse
           cx="300.33316"
           cy="-30.019691"
           rx="0.79500759"
           ry="1.113011"
           fill="#ffb8b8"
           id="ellipse7729"
           style="fill:#a0616a;fill-opacity:1;stroke-width:0.153139" />
        <g
           id="g7757"
           transform="matrix(0.80333377,0,0,0.80333377,4042.5035,-2202.994)">
          <path
             d="m -4836.6619,2733.8675 c 0,0 6.8699,7.7123 3.0263,8.2425 -3.8436,0.53 -5.3555,-7.2656 -5.3555,-7.2656 z"
             fill="#ffb9b9"
             id="path7731"
             style="stroke-width:0.190629" />
          <path
             d="m -4845.6265,2697.3611 v 0 a 4.5243671,4.5243671 0 0 1 3.3289,3.746 l 2.1852,15.5535 3.0635,12.407 c 0,0 1.5317,1.3785 0.9191,2.1443 -0.6127,0.7659 0.7657,3.9825 0.7657,3.9825 l -3.8292,1.2253 c 0,0 -0.4594,-3.2166 -1.2254,-3.3698 -0.673,-0.1347 -8.2073,-20.2618 -10.0236,-25.1375 -0.2503,-0.6724 -0.3921,-1.0547 -0.3921,-1.0547 0,0 0.3065,-10.2624 5.2079,-9.4966 z"
             fill="#575a89"
             id="path7733"
             style="stroke-width:0.190629" />
          <path
             d="m -4844.9271,2778.4717 2.3521,4.1682 c 1.8214,3.8887 0.2028,4.5952 -4.2631,2.6675 l -1.0181,-4.9217 z"
             fill="#ffb9b9"
             id="path7735"
             style="stroke-width:0.190629" />
          <path
             d="m -4843.7403,2784.0114 c 0,0 1.1166,-1.8178 1.5204,-1.5134 0.4039,0.3042 2.0695,1.6226 2.0695,1.6226 l 2.1697,2.0782 c 0,0 7.3303,0.7751 2.6725,3.3433 -4.6578,2.5684 -7.232,0.4389 -7.232,0.4389 0,0 -6.5238,0.3393 -6.4185,-1.4809 0.106,-1.8201 2.2091,-4.6997 2.2091,-4.6997 0,0 2.6518,1.7778 3.0093,0.211 z"
             fill="#2f2e41"
             id="path7737"
             style="stroke-width:0.190629" />
          <path
             d="m -4855.3642,2731.3572 2.2051,26.6811 c 0,0 0.073,15.9499 2.4255,19.037 2.352,3.087 2.4255,4.6305 2.4255,4.6305 l 4.8511,-2.4991 c 0,0 -2.4991,-4.1641 -1.9845,-4.8015 a 3.5530244,3.5530244 0 0 0 0.6615,-1.3725 l -1.323,-16.4644 2.4991,-28.6656 z"
             fill="#2f2e41"
             id="path7739"
             style="stroke-width:0.190629" />
          <path
             d="M -4851.9832,2781.7058"
             fill="none"
             stroke="#3f3d56"
             stroke-miterlimit="10"
             id="path7741"
             style="stroke-width:0.190629" />
          <polygon
             points="17.064,682.788 29.981,661.407 52.344,664.492 41.548,693.024 "
             fill="#ffb9b9"
             id="polygon7743"
             transform="matrix(0.19062905,0,0,0.19062905,-4859.3155,2651.8004)" />
          <path
             d="m -4852.7705,2782.0789 c 0,0 1.7504,-1.094 1.9692,-0.6565 0.2189,0.4377 1.0941,2.2976 1.0941,2.2976 l 0.9848,2.7351 c 0,0 6.0173,3.8293 0.8752,4.048 -5.1421,0.2189 -6.455,-2.7352 -6.455,-2.7352 0,0 -5.7986,-2.5161 -4.9233,-4.0479 0.8752,-1.5317 3.9385,-3.1203 3.9385,-3.1203 0,0 1.5317,2.6827 2.5165,1.4792 z"
             fill="#2f2e41"
             id="path7745"
             style="stroke-width:0.190629" />
          <path
             d="m -4836.6948,2731.4307 1.1759,24.5496 c 0,0 -10.7312,22.1975 -11.9072,22.7854 a 2.9524,2.9524 0 0 0 -1.4701,1.7641 l -6.468,-1.6171 2.94,-4.704 6.4681,-15.7294 c 0,0 1.029,-0.441 1.323,-1.911 0.2941,-1.47 0.882,-1.47 -0.5879,-1.764 -1.4701,-0.2941 -1.4701,-1.7641 -1.4701,-1.7641 l -4.8511,-22.3445 z"
             fill="#2f2e41"
             id="path7747"
             style="stroke-width:0.190629" />
          <circle
             cx="-3427.9399"
             cy="-4349.0488"
             r="5.8801284"
             transform="rotate(-80.782519)"
             fill="#ffb9b9"
             id="circle7749"
             style="stroke-width:0.190629" />
          <path
             d="m -4847.2056,2687.4033 c 0,0 -0.441,7.4971 -1.0289,8.2322 -0.5881,0.7349 6.1741,0.5879 6.1741,0.5879 0,0 -0.441,-6.321 0,-6.9091 0.441,-0.588 -5.1452,-1.911 -5.1452,-1.911 z"
             fill="#ffb9b9"
             id="path7751"
             style="stroke-width:0.190629" />
          <path
             d="m -4836.2544,2733.048 c 0,0 -16.6115,-1.4698 -19.6977,0 0,0 1.1362,-4.2149 0.8426,-4.6553 -0.2135,-0.322 0.3755,-12.3279 0.1907,-19.2534 -0.1044,-3.9079 -1.0066,-7.7244 1.6145,-10.6258 0.8922,-0.9855 1.8874,-1.8127 2.9377,-2.217 0,0 -0.2936,-2.7927 1.1761,-2.9395 0,0 5.5873,-0.589 7.6443,1.1763 0.6576,0.5604 1.0714,2.2684 1.1151,3.7401 -1.0179,5.006 -0.6576,10.5608 0.2765,16.3236 0.057,0.3661 0.1196,0.7338 0.183,1.1019 0.9913,5.7149 2.4895,11.6072 3.7172,17.3491 z"
             fill="#575a89"
             id="path7753"
             style="stroke-width:0.190629" />
          <path
             d="m -4845.0588,2688.7684 c 0.4973,-0.03 0.9828,0.1377 1.4766,0.204 1.7668,0.2346 3.6048,-1.0476 3.995,-2.7866 a 2.1380955,2.1380955 0 0 1 0.2043,-0.6658 c 0.272,-0.4439 0.8912,-0.5286 1.4017,-0.4265 0.5105,0.1014 0.9943,0.341 1.5143,0.3683 0.8027,0.042 1.5734,-0.4521 2.0012,-1.1325 a 3.8407942,3.8407942 0 0 0 0.4911,-2.3198 l -0.3847,0.4038 a 1.9546245,1.9546245 0 0 1 -0.1743,-1.0623 1.2327238,1.2327238 0 0 0 -1.1676,0.2989 c -0.3393,0.036 -0.083,-0.6294 -0.3354,-0.8594 a 0.58317241,0.58317241 0 0 0 -0.4103,-0.077 c -0.7217,0 -1.3058,-0.5451 -1.8747,-0.9896 a 7.9662475,7.9662475 0 0 0 -3.3644,-1.5348 c -0.8153,-0.159 -1.682,-0.1845 -2.4551,0.1196 a 5.2441578,5.2441578 0 0 0 -1.6577,1.1761 c -1.2103,1.1638 -2.2821,2.5311 -2.7856,4.1328 a 6.9573315,6.9573315 0 0 0 -0.033,4.0343 c 0.2029,0.6848 0.8143,3.0298 1.7094,3.0844 1.1247,0.068 0.4496,-1.884 1.8495,-1.9676 z"
             fill="#2f2e41"
             id="path7755"
             style="stroke-width:0.190629" />
        </g>
        <path
           d="m 304.12144,-8.6482029 h -10.32043 l 2.32621,-5.8402361 c -0.16894,-2.00962 0.68276,-3.487754 1.90173,-4.774534 l 1.54658,-3.882834 c 2.49877,-1.644504 4.38267,-1.521675 6.38884,0.61439 2.37843,3.367575 0.73207,8.429943 -1.84293,13.8832141 z"
           fill="#6c63ff"
           id="path7717"
           style="fill:#575a89;fill-opacity:1;stroke-width:0.153139" />
        <path
           d="m 299.45262,3.7608939 -0.29346,3.2284377 c -0.10475,1.1523823 -0.7099,1.9480844 -1.83794,1.6902946 v 0 a 1.9113019,1.9113019 0 0 1 -1.35185,-2.5649644 l 1.0261,-2.5994274 2.94863,-12.0404469 -0.49148,-8.7232405 h 4.91448 l -0.61423,9.3374695 z"
           fill="#ffb8b8"
           id="path7719"
           style="fill:#a0616a;fill-opacity:1;stroke-width:0.153139" />
        <g
           id="g9089"
           transform="translate(-172.26715,-215.15524)">
          <g
             id="g5709"
             transform="matrix(1.2157713,0,0,1.2157713,4603.2636,-2092.1728)" />
          <g
             id="g5717"
             transform="matrix(1.2157713,0,0,1.2157713,4603.2636,-2092.1728)" />
        </g>
      </g>
      <rect
         style="opacity:0;fill:none;fill-opacity:1;stroke:#ff0000;stroke-width:0.264583;stroke-linecap:round;stroke-miterlimit:4;stroke-dasharray:none;stroke-dashoffset:140;stroke-opacity:1"
         id="rect9842"
         width="181.92714"
         height="109.2858"
         x="110.51499"
         y="-88.683914" />
    </g>
    <g
       id="g10454"
       transform="matrix(1.2157713,0,0,1.2157713,4402.6918,-2203.2072)">
      <path
         d="m -3517.616,1881.0703 -4.8381,-4.8382 1.2243,-0.3993 3.4928,4.5094 c 0.038,0.2419 0.079,0.4849 0.121,0.7281 z"
         opacity="0.1"
         style="isolation:isolate;stroke-width:0.12596"
         id="path10450" />
      <path
         d="m -3519.3692,1869.4303 1.392,0.1491 c 0,0 1.3664,2.651 1.2672,3.204 -0.099,0.553 -0.3153,0.2172 0.2997,1.1019 0.615,0.8847 2.3602,3.1715 2.5763,3.5072 0.4892,0.5501 0.7598,1.5231 1.2432,3.1108 0.1696,0.7034 0.3404,1.7545 0.2382,1.8775 -0.8462,1.0191 -1.5271,0.8098 -2.6899,0.2056 -1.1627,-0.6043 -7.0452,-6.6311 -7.0452,-6.6311 z"
         fill="#575a89"
         id="path10452"
         style="fill:#575a89;fill-opacity:1;stroke-width:0.12596"
         sodipodi:nodetypes="cccsccsccc" />
    </g>
    <rect
       style="opacity:0;fill:none;fill-opacity:1;stroke:#ff0000;stroke-width:0.264583;stroke-linecap:round;stroke-miterlimit:4;stroke-dasharray:none;stroke-dashoffset:140;stroke-opacity:1"
       id="rect10468"
       width="181.92714"
       height="109.2858"
       x="110.51499"
       y="36.665447" />
    <g
       id="g13168"
       transform="translate(-244.8787,-20.094993)">
      <path
         id="path12976"
         style="fill:#a9c7d6;fill-opacity:1;stroke-width:0.212548;stop-color:#000000"
         d="m 158.52591,-67.439605 87.5045,8.936285 61.98949,70.777641 -95.86093,29.312605 z"
         sodipodi:nodetypes="ccccc" />
      <path
         d="M 288.98085,22.422096 H 158.48626 v -78.120915 h 130.49459 z"
         fill="#e5e5e5"
         id="path12978"
         style="fill:#ffffff;fill-opacity:1;stroke-width:0.201721"
         sodipodi:nodetypes="ccccc" />
      <g
         id="g12988"
         transform="matrix(0.57879217,0,0,0.57879217,2164.4275,-1720.6912)">
        <path
           d="m -3450.3207,2953.9978 h 28.0173 a 1.1687572,1.1687572 0 0 1 1.1674,1.1674 v 29.1789 a 1.1687572,1.1687572 0 0 1 -1.1674,1.1674 h -28.0173 a 1.1687572,1.1687572 0 0 1 -1.1674,-1.1674 v -29.1789 a 1.1687572,1.1687572 0 0 1 1.1674,-1.1674 z m 28.0173,31.0467 a 0.7011961,0.7011961 0 0 0 0.7005,-0.7004 v -29.1789 a 0.7011961,0.7011961 0 0 0 -0.7005,-0.7004 h -28.0173 a 0.7011961,0.7011961 0 0 0 -0.7004,0.7004 v 29.1789 a 0.7011961,0.7011961 0 0 0 0.7004,0.7004 z"
           fill="#3f3d56"
           id="path12980"
           style="stroke-width:0.264583" />
        <path
           d="m -3428.2733,2979.4943 a 0.79255143,0.79255143 0 1 0 0,-1.5851 h -16.0774 a 0.79255143,0.79255143 0 1 0 0,1.5851 z"
           fill="#e6e6e6"
           id="path12982"
           style="stroke-width:0.264583" />
        <path
           d="m -3428.2733,2974.8247 a 0.79255143,0.79255143 0 1 0 0,-1.5851 h -16.0774 a 0.79255143,0.79255143 0 1 0 0,1.5851 z"
           fill="#e6e6e6"
           id="path12984"
           style="stroke-width:0.264583" />
        <path
           d="m -3436.3121,2960.015 a 4.9887451,4.9887451 0 1 1 -4.9887,4.9888 4.994394,4.994394 0 0 1 4.9887,-4.9888 z"
           fill="#6c63ff"
           id="path12986"
           style="fill:#285b9e;fill-opacity:1;stroke-width:0.264583" />
      </g>
      <g
         id="g13002"
         transform="matrix(0.57879217,0,0,0.57879217,2163.4868,-1587.6342)">
        <path
           d="m -3273.5688,2696.7538 h -55.6305 a 1.1687572,1.1687572 0 0 1 -1.1674,-1.1673 v -28.9455 a 1.1687572,1.1687572 0 0 1 1.1674,-1.1674 h 55.6305 a 1.1687572,1.1687572 0 0 1 1.1674,1.1674 v 28.9454 a 1.1687572,1.1687572 0 0 1 -1.1674,1.1674 z m -55.6305,-30.8132 a 0.7011961,0.7011961 0 0 0 -0.7004,0.7004 v 28.9454 a 0.70119874,0.70119874 0 0 0 0.7004,0.7005 h 55.6305 a 0.70119874,0.70119874 0 0 0 0.7004,-0.7005 v -28.9454 a 0.7011961,0.7011961 0 0 0 -0.7004,-0.7004 z"
           fill="#3f3d56"
           id="path12990"
           style="stroke-width:0.264583" />
        <circle
           cx="-3319.8713"
           cy="2675.7275"
           r="4.7553062"
           fill="#6c63ff"
           id="circle12992"
           style="fill:#285b9e;fill-opacity:1;stroke-width:0.264583" />
        <path
           d="m -3308.8888,2672.5573 a 0.79255143,0.79255143 0 1 0 0,1.5851 h 29.9548 a 0.7925501,0.7925501 0 1 0 0,-1.5851 z"
           fill="#e6e6e6"
           id="path12994"
           style="stroke-width:0.264583" />
        <path
           d="m -3308.8888,2677.3126 a 0.79255143,0.79255143 0 1 0 0,1.5851 h 16.0774 a 0.7925501,0.7925501 0 1 0 0,-1.5851 z"
           fill="#e6e6e6"
           id="path12996"
           style="stroke-width:0.264583" />
        <path
           d="m -3323.5188,2684.9149 c -0.6028,0 -1.0934,0.3556 -1.0934,0.7926 0,0.4369 0.4906,0.7925 1.0934,0.7925 h 44.1413 c 0.6029,0 1.0935,-0.3556 1.0935,-0.7925 0,-0.437 -0.4906,-0.7926 -1.0935,-0.7926 z"
           fill="#e6e6e6"
           id="path12998"
           style="stroke-width:0.264583" />
        <path
           d="m -3323.5188,2689.6702 c -0.6028,0 -1.0934,0.3556 -1.0934,0.7926 0,0.4369 0.4906,0.7925 1.0934,0.7925 h 44.1413 c 0.6029,0 1.0935,-0.3556 1.0935,-0.7925 0,-0.437 -0.4906,-0.7926 -1.0935,-0.7926 z"
           fill="#e6e6e6"
           id="path13000"
           style="stroke-width:0.264583" />
      </g>
      <g
         id="g13018"
         transform="matrix(0.57879217,0,0,0.57879217,2370.6413,-1620.0004)">
        <g
           id="g13008">
          <path
             d="m -3702.6025,2788.5308 h -54.9906 a 4.6354708,4.6354708 0 0 1 -4.6303,-4.6302 v -66.4511 a 3.4668539,3.4668539 0 0 1 3.4629,-3.463 h 57.27 a 3.5222444,3.5222444 0 0 1 3.5182,3.5183 v 66.3958 a 4.6354497,4.6354497 0 0 1 -4.6302,4.6302 z m -56.158,-74.0151 a 2.937039,2.937039 0 0 0 -2.9337,2.9338 v 66.4511 a 4.1056559,4.1056559 0 0 0 4.1011,4.1011 h 54.9906 a 4.1056771,4.1056771 0 0 0 4.101,-4.1011 v -66.3958 a 2.9924375,2.9924375 0 0 0 -2.989,-2.9891 z"
             fill="#cccccc"
             id="path13004"
             style="stroke-width:0.264583" />
          <path
             d="m -3753.3598,2783.9006 h 46.5239 a 4.2333333,4.2333333 0 0 0 4.2334,-4.2333 v -56.7658 a 4.2333333,4.2333333 0 0 0 -4.2334,-4.2333 h -46.5239 a 4.2333333,4.2333333 0 0 0 -4.2333,4.2333 v 56.7658 a 4.2333333,4.2333333 0 0 0 4.2333,4.2333 z"
             fill="#e6e6e6"
             id="path13006"
             style="stroke-width:0.264583" />
        </g>
        <path
           d="m -3717.2655,2730.25 h -25.6646 a 1.7198,1.7198 0 0 1 0,-3.4396 h 25.6646 a 1.7198,1.7198 0 1 1 0,3.4396 z"
           fill="#ffffff"
           id="path13010"
           style="stroke-width:0.264583" />
        <path
           d="m -3717.2655,2767.5563 h -25.6646 a 1.7198,1.7198 0 0 1 0,-3.4396 h 25.6646 a 1.7198,1.7198 0 1 1 0,3.4396 z"
           fill="#ffffff"
           id="path13012"
           style="stroke-width:0.264583" />
        <path
           d="m -3717.2655,2775.7584 h -25.6646 a 1.7198,1.7198 0 0 1 0,-3.4396 h 25.6646 a 1.7198,1.7198 0 1 1 0,3.4396 z"
           fill="#ffffff"
           id="path13014"
           style="stroke-width:0.264583" />
        <circle
           cx="-3729.9656"
           cy="2745.199"
           r="10.318749"
           fill="#ffffff"
           id="circle13016"
           style="stroke-width:0.264583" />
      </g>
      <g
         id="g13034"
         transform="matrix(1.2157713,0,0,1.2157713,4374.8252,-2301.0521)">
        <g
           id="g13024"
           transform="matrix(0.47606995,0,0,0.47606995,-1667.0457,523.53616)">
          <path
             d="m -3629.5334,2868.1886 -4.5076,0.9508 a 0.26462302,0.26462302 0 0 0 -0.1814,0.3786 l 0.42,0.8275 -20.3847,10.3471 a 0.26457674,0.26457674 0 1 0 0.2396,0.4718 l 20.3846,-10.3471 0.42,0.8275 a 0.264541,0.264541 0 0 0 0.4127,0.077 l 3.4282,-3.0775 a 0.26458333,0.26458333 0 0 0 -0.2314,-0.4558 z"
             fill="#e6e6e6"
             id="path13020"
             style="stroke-width:0.264583" />
          <path
             d="m -3629.5334,2893.9078 -4.5076,-0.9507 a 0.26462302,0.26462302 0 0 1 -0.1814,-0.3786 l 0.42,-0.8275 -20.3847,-10.3471 a 0.26457674,0.26457674 0 1 1 0.2396,-0.4718 l 20.3846,10.3471 0.42,-0.8275 a 0.264541,0.264541 0 0 1 0.4127,-0.077 l 3.4282,3.0776 a 0.26458333,0.26458333 0 0 1 -0.2314,0.4557 z"
             fill="#e6e6e6"
             id="path13022"
             style="stroke-width:0.264583" />
        </g>
        <g
           id="g13030"
           transform="matrix(0.47606995,0,0,0.47606995,-1709.7202,542.22202)">
          <path
             d="m -3531.6809,2832.9669 a 5.8208333,5.8208333 0 1 1 5.8209,-5.8208 5.8274187,5.8274187 0 0 1 -5.8209,5.8208 z m 0,-11.1125 a 5.2916666,5.2916666 0 1 0 5.2917,5.2917 5.2976885,5.2976885 0 0 0 -5.2917,-5.2917 z"
             fill="#e6e6e6"
             id="path13026"
             style="stroke-width:0.264583" />
          <path
             id="path13028"
             data-name="Path 395"
             d="m -3532.2814,2830.4319 a 0.77532176,0.77532176 0 0 1 -0.4665,-0.155 l -0.01,-0.01 -1.7569,-1.3439 a 0.78079359,0.78079359 0 1 1 0.9501,-1.2393 l 1.1379,0.8727 2.689,-3.5082 a 0.78040441,0.78040441 0 0 1 1.0942,-0.1445 l 2e-4,2e-4 -0.017,0.023 0.017,-0.023 a 0.78134368,0.78134368 0 0 1 0.1443,1.0944 l -3.1629,4.1245 a 0.78088066,0.78088066 0 0 1 -0.6209,0.3044 z"
             fill="#e6e6e6"
             style="stroke-width:0.264583" />
        </g>
        <path
           d="m -3388.1587,1903.1472 h -4.5345 a 1.2596017,1.2596017 0 0 1 0,-2.5192 h 4.5345 a 1.2596017,1.2596017 0 0 1 0,2.5192 z"
           fill="#6c63ff"
           id="path13032"
           style="fill:#285b9e;fill-opacity:1;stroke-width:0.12596" />
      </g>
      <path
         d="M 288.98085,22.422096 H 158.48626 V -55.698819 H 288.98085 Z M 160.60433,19.956504 H 286.86278 V -53.233227 H 160.60433 Z"
         fill="#e5e5e5"
         id="path13036"
         style="stroke-width:0.201721" />
      <path
         d="M 192.19238,10.408882 H 180.65129 A 0.8964314,0.8964314 0 0 1 179.75597,9.513326 V 4.5387619 a 6.6659145,6.6659145 0 1 1 13.33181,0 V 9.513326 a 0.8964314,0.8964314 0 0 1 -0.8954,0.895556 z"
         fill="#2f2e41"
         id="path13038"
         style="stroke-width:0.272567" />
      <g
         id="g13054"
         transform="translate(-142.36384,-133.55101)">
        <path
           d="m 337.77261,162.04232 c -0.14171,0 -0.28374,0 -0.42593,-0.0185 -1.7209,-0.14356 -3.24692,-1.16267 -4.03884,-2.69736 l -5.02767,-9.67704 c -1.62924,-3.13846 2.8916,-5.75492 4.80129,-2.77873 l 4.63845,10.40759 c 0.4828,1.95243 1.06152,3.65742 0.0522,4.76377 z"
           fill="#6c63ff"
           id="path13040"
           style="fill:#285b9e;fill-opacity:1;stroke-width:0.272567"
           sodipodi:nodetypes="ccccccc" />
        <g
           id="g13044"
           transform="matrix(0.57879217,0,0,0.57879217,2294.9073,-1429.0346)">
          <path
             d="m -3334.8837,2727.3956 h -26.2827 l 6.1852,-10.7133 a 1.2630362,1.2630362 0 0 1 2.1877,0 l 2.6422,4.5765 4.4927,-7.7815 a 1.5813431,1.5813431 0 0 1 2.7391,0 z"
             fill="#6c63ff"
             id="path13042"
             style="fill:#285b9e;fill-opacity:1;stroke-width:0.264583" />
        </g>
        <path
           d="m 364.71701,149.55901 h -16.21617 a 0.67646753,0.67646753 0 0 1 -0.67569,-0.67568 v -9.05068 a 0.67646753,0.67646753 0 0 1 0.67569,-0.67569 h 16.21617 a 0.67646753,0.67646753 0 0 1 0.67569,0.67569 v 9.05068 a 0.67646753,0.67646753 0 0 1 -0.67569,0.67568 z m -16.21617,-10.13173 a 0.40584682,0.40584682 0 0 0 -0.40544,0.40537 v 9.05068 a 0.40584682,0.40584682 0 0 0 0.40544,0.40544 h 16.21617 a 0.40584682,0.40584682 0 0 0 0.40545,-0.40544 v -9.05068 a 0.40584682,0.40584682 0 0 0 -0.40545,-0.40545 z"
           fill="#3f3d56"
           id="path13046"
           style="stroke-width:0.153139" />
        <g
           id="g13052"
           transform="matrix(0.80333377,0,0,0.80333377,3990.3228,-2030.7268)">
          <path
             d="m -4534.9859,2713.2507 a 2.3226247,2.3226247 0 0 0 -1.7798,3.0848 l -3.9067,3.5931 1.6045,2.9065 5.4456,-5.1514 a 2.3352261,2.3352261 0 0 0 -1.3636,-4.433 z"
             fill="#ffb8b8"
             id="path13048"
             style="stroke-width:0.339295" />
          <path
             d="m -4546.7405,2729.5866 c -0.1765,0 -0.3533,0 -0.5302,-0.023 -0.5548,-2.2485 -1.056,-3.7387 0.4646,-5.9073 l 7.8567,-6.3837 4.5492,1.7709 -7.6827,8.4815 c -1.1941,1.3108 -2.8845,2.0589 -4.6576,2.0613 z"
             fill="#6c63ff"
             id="path13050"
             style="fill:#285b9e;fill-opacity:1;stroke-width:0.339295"
             sodipodi:nodetypes="ccccccc" />
        </g>
      </g>
      <g
         id="g13082"
         transform="matrix(0.80333377,0,0,0.80333377,4042.5035,-2202.994)">
        <polygon
           points="533.276,398.679 528.489,410.991 560.665,423.5 563.908,415.158 "
           fill="#ffb8b8"
           id="polygon13056"
           transform="matrix(0.33929565,0,0,0.33929565,-4933.6602,2643.667)" />
        <path
           d="m -4737.5333,2779.9751 a 3.8092348,3.8092348 0 0 0 -4.9331,2.1714 l -0.7422,1.9078 -1.1446,2.9451 -0.2797,0.7224 3.6673,1.4265 3.5476,-9.1273 z"
           fill="#2f2e41"
           id="path13058"
           style="stroke-width:0.339295" />
        <path
           d="m -4744.3526,2781.9117 -0.4787,1.269 -1.1943,3.1677 -0.029,0.08 c -3.043,0.391 -6.3789,-0.3755 -9.4642,-1.5662 a 38.46968,38.46968 0 0 1 -3.6224,-1.6164 c -1.7449,-0.8817 -3.3071,-1.8121 -4.5534,-2.608 -1.8766,-1.2044 -3.0369,-2.1088 -3.0369,-2.1088 0,0 -0.3065,0.2773 -0.8613,0.7522 -0.7434,0.636 -1.9314,1.6293 -3.4362,2.7987 q -0.8611,0.6738 -1.8489,1.4096 c -4.8552,3.6011 -11.0859,-6.0082 -11.0859,-6.0082 0,0 1.7524,-1.1157 2.21,-1.3323 1.4741,-0.6974 4.9372,-2.343 7.925,-3.8055 1.5393,-0.7545 2.9505,-1.4621 3.8981,-1.9648 3.3552,-1.7864 7.526,1.5938 7.526,1.5938 z"
           fill="#2f2e41"
           id="path13060"
           style="stroke-width:0.339295" />
        <path
           d="m -4744.3526,2781.9117 -0.4787,1.269 -1.1943,3.1677 -0.029,0.08 c -3.043,0.391 -6.3789,-0.3755 -9.4642,-1.5662 a 38.46968,38.46968 0 0 1 -3.6224,-1.6164 c -1.7449,-0.8817 -3.3071,-1.8121 -4.5534,-2.608 -1.8766,-1.2044 -3.0369,-2.1088 -3.0369,-2.1088 0,0 -0.3065,0.2773 -0.8613,0.7522 -0.7434,0.636 -1.9314,1.6293 -3.4362,2.7987 q -0.8611,0.6738 -1.8489,1.4096 c -4.8552,3.6011 -11.0859,-6.0082 -11.0859,-6.0082 0,0 1.7524,-1.1157 2.21,-1.3323 1.4741,-0.6974 4.9372,-2.343 7.925,-3.8055 1.5393,-0.7545 2.9505,-1.4621 3.8981,-1.9648 3.3552,-1.7864 7.526,1.5938 7.526,1.5938 z"
           opacity="0.14"
           id="path13062"
           style="stroke-width:0.339295" />
        <polygon
           points="532.676,408.381 526.958,420.289 558.077,435.233 561.951,427.165 "
           fill="#ffb8b8"
           id="polygon13064"
           transform="matrix(0.33929565,0,0,0.33929565,-4933.6602,2643.667)" />
        <path
           d="m -4737.8616,2784.4307 a 3.8092416,3.8092416 0 0 0 -5.085,1.7858 l -0.8869,1.8455 -1.3672,2.8485 -0.3344,0.6985 3.5471,1.7042 4.238,-8.828 z"
           fill="#2f2e41"
           id="path13066"
           style="stroke-width:0.339295" />
        <path
           d="m -4744.8093,2785.8377 -0.5748,1.2285 -1.434,3.0666 -0.035,0.077 c -3.064,0.1559 -6.331,-0.8645 -9.3159,-2.2887 a 38.469598,38.469598 0 0 1 -3.4875,-1.89 c -1.672,-1.0131 -3.1582,-2.0608 -4.3395,-2.9501 -1.7786,-1.3449 -2.866,-2.3356 -2.866,-2.3356 0,0 -0.3269,0.2526 -0.9165,0.6836 -0.79,0.577 -2.0508,1.4762 -3.6411,2.5263 q -0.9102,0.6057 -1.9519,1.2634 c -5.1174,3.2175 -12.3946,7.1362 -18.5846,7.9634 -10.8714,1.4539 -8.3127,-13.0536 -8.3127,-13.0536 l 8.6522,-4.4931 3.6733,0.7455 4.0894,0.8272 1.4491,0.2948 c 0,0 0.275,-0.1044 0.7479,-0.2848 1.5234,-0.5822 5.1026,-1.9569 8.1939,-3.1854 1.5927,-0.6342 3.054,-1.231 4.0373,-1.6596 3.4828,-1.5233 7.3813,2.1673 7.3813,2.1673 z"
           fill="#2f2e41"
           id="path13068"
           style="stroke-width:0.339295" />
        <path
           d="m -4816.1006,2793.5283 a 2.3226416,2.3226416 0 0 0 1.6179,-3.1729 l 3.7156,-3.7902 -1.7527,-2.8196 -5.1717,5.4262 a 2.3352261,2.3352261 0 0 0 1.5909,4.3565 z"
           fill="#ffb8b8"
           id="path13070"
           style="stroke-width:0.339295" />
        <circle
           cx="-4798.0649"
           cy="2749.7554"
           r="5.7926826"
           fill="#ffb8b8"
           id="circle13072"
           style="stroke-width:0.339295" />
        <path
           d="m -4805.6012,2765.8353 5.0461,14.3058 -0.03,0.05 c -0.7018,1.1601 -0.9312,2.096 -0.6634,2.7064 a 1.1793136,1.1793136 0 0 0 0.7478,0.645 l 11.9411,-8.3466 -0.418,-3.3452 0.023,-0.038 c 1.1541,-1.8468 1.5279,-3.5192 1.111,-4.9706 a 4.7973656,4.7973656 0 0 0 -2.2777,-2.7471 l -0.041,-0.032 -5.9558,-7.2489 -7.9616,1.4144 z"
           fill="#6c63ff"
           id="path13074"
           style="fill:#285b9e;fill-opacity:1;stroke-width:0.339295" />
        <path
           d="m -4813.2748,2790.9455 -3.3805,-4.1605 8.1492,-13.4522 3.7993,-11.7439 0.118,0.038 -0.118,-0.038 a 4.7177532,4.7177532 0 1 1 8.4126,4.0712 l -6.975,10.4501 z"
           fill="#6c63ff"
           id="path13076"
           style="fill:#285b9e;fill-opacity:1;stroke-width:0.339295" />
        <path
           d="m -4789.8382,2748.5839 h -8.7847 l -0.089,-1.2613 -0.4502,1.2613 h -1.3527 l -0.1786,-2.4997 -0.8928,2.4997 h -2.6172 v -0.1241 a 6.5713186,6.5713186 0 0 1 6.5639,-6.564 h 1.2386 a 6.5713694,6.5713694 0 0 1 6.5639,6.564 z"
           fill="#2f2e41"
           id="path13078"
           style="stroke-width:0.339295" />
        <path
           d="m -4798.6948,2756.4277 a 1.138554,1.138554 0 0 1 -0.1972,-0.018 l -6.4326,-1.135 v -10.6311 h 7.081 l -0.1753,0.2045 c -2.4392,2.8446 -0.6016,7.4573 0.7108,9.9535 a 1.0981337,1.0981337 0 0 1 -0.088,1.1659 1.1101754,1.1101754 0 0 1 -0.8994,0.4596 z"
           fill="#2f2e41"
           id="path13080"
           style="stroke-width:0.339295" />
      </g>
      <polygon
         points="813.808,706.872 799.366,704.465 800.971,677.187 816.215,677.187 "
         fill="#ffb8b8"
         id="polygon13084"
         transform="matrix(0.15313876,0,0,0.15313876,172.86136,-69.964501)"
         style="fill:#a0616a;fill-opacity:1" />
      <polygon
         points="953.968,680.229 939.992,684.589 929.131,659.516 942.738,652.646 "
         fill="#ffb8b8"
         id="polygon13086"
         transform="matrix(0.15313876,0,0,0.15313876,172.86136,-69.964501)"
         style="fill:#a0616a;fill-opacity:1" />
      <path
         d="m 317.75899,30.544684 -2.70289,1.105709 -12.9005,-16.954841 -4.05443,19.903558 -2.70289,-0.491399 c -1.734,-17.159531 -3.14787,-34.66208516 -1.41299,-42.9401183 l 10.01324,-0.4299443 4.54582,14.4976039 2.21158,9.8288687 z"
         fill="#2f2e41"
         id="path13088"
         style="stroke-width:0.153139" />
      <path
         d="m 297.36524,41.663306 v 0 a 1.9405515,1.9405515 0 0 1 -1.20299,-0.127811 l -1.31369,-0.591253 c -1.10162,-0.05704 -1.85161,0.162916 -2.46503,-0.637446 a 1.6073858,1.6073858 0 0 1 -0.18758,-1.620565 v 0 a 1.6185006,1.6185006 0 0 1 1.32172,-0.96159 l 1.80445,-1.137039 0.0947,0.852337 c 0.82471,0.467139 1.80381,0.265422 2.8414,-0.189506 l 0.56627,1.982306 a 1.9405545,1.9405545 0 0 1 -1.45926,2.430567 z"
         fill="#2f2e41"
         id="path13090"
         style="stroke-width:0.153139" />
      <path
         d="m 319.82661,37.597312 v 0 a 1.9405498,1.9405498 0 0 1 -1.17929,0.269679 l -1.43451,-0.13255 c -1.06024,0.304223 -1.69841,0.755295 -2.53838,0.19746 a 1.6073827,1.6073827 0 0 1 -0.70372,-1.471708 v 0 a 1.6185022,1.6185022 0 0 1 0.93781,-1.338755 l 1.33739,-1.661375 0.3664,0.775378 c 0.93179,0.174163 1.79232,-0.334669 2.62586,-1.101773 l 1.17938,1.690938 a 1.9405545,1.9405545 0 0 1 -0.59094,2.772706 z"
         fill="#2f2e41"
         id="path13092"
         style="stroke-width:0.153139" />
      <circle
         cx="300.31277"
         cy="-31.131729"
         r="4.4230089"
         fill="#ffb8b8"
         id="circle13094"
         style="fill:#a0616a;fill-opacity:1;stroke-width:0.153139" />
      <polygon
         points="867.561,314.553 829.853,306.53 825.04,275.241 851.515,269.625 "
         fill="#ffb8b8"
         id="polygon13096"
         transform="matrix(0.15313876,0,0,0.15313876,172.86136,-69.964501)"
         style="fill:#a0616a;fill-opacity:1" />
      <g
         id="g13106"
         transform="matrix(0.57879217,0,0,0.57879217,2236.8668,-1562.477)">
        <path
           d="m -3381.4381,2707.6793 h -28.0173 a 1.1687572,1.1687572 0 0 1 -1.1674,-1.1674 v -29.1789 a 1.1687572,1.1687572 0 0 1 1.1674,-1.1674 h 28.0173 a 1.1687572,1.1687572 0 0 1 1.1674,1.1674 v 29.1789 a 1.1687572,1.1687572 0 0 1 -1.1674,1.1674 z m -28.0173,-31.0468 a 0.7011961,0.7011961 0 0 0 -0.7005,0.7005 v 29.1789 a 0.7011961,0.7011961 0 0 0 0.7005,0.7004 h 28.0173 a 0.7011961,0.7011961 0 0 0 0.7004,-0.7004 v -29.1789 a 0.7011961,0.7011961 0 0 0 -0.7004,-0.7005 z"
           fill="#3f3d56"
           id="path13098"
           style="stroke-width:0.264583" />
        <path
           d="m -3403.4855,2682.1828 a 0.79255143,0.79255143 0 0 0 0,1.5851 h 16.0775 a 0.79255143,0.79255143 0 0 0 0,-1.5851 z"
           fill="#e6e6e6"
           id="path13100"
           style="stroke-width:0.264583" />
        <path
           d="m -3403.4855,2686.8523 a 0.79255143,0.79255143 0 1 0 0,1.5851 h 16.0775 a 0.7925501,0.7925501 0 1 0 0,-1.5851 z"
           fill="#e6e6e6"
           id="path13102"
           style="stroke-width:0.264583" />
        <path
           d="m -3395.4467,2701.662 a 4.9887425,4.9887425 0 1 1 4.9887,-4.9887 4.994394,4.994394 0 0 1 -4.9887,4.9887 z"
           fill="#6c63ff"
           id="path13104"
           style="fill:#285b9e;fill-opacity:1;stroke-width:0.264583" />
      </g>
      <path
         d="m 283.27896,-12.222317 -2.89055,1.46777 c -1.03172,0.52386 -2.02729,0.43437 -2.40864,-0.65817 v 0 a 1.9113019,1.9113019 0 0 1 1.4538,-2.50865 l 2.74716,-0.51285 11.76554,-3.90348 7.1271,-5.05369 2.61268,4.1624 -8.23529,4.44372 z"
         fill="#ffb8b8"
         id="path13108"
         style="fill:#a0616a;fill-opacity:1;stroke-width:0.153139" />
      <path
         d="m 304.73567,-17.002713 h -5.65162 l 0.39629,-3.68674 a 2.5575459,2.5575459 0 0 1 2.42767,-2.450088 v 0 a 2.5575429,2.5575429 0 0 1 2.6833,2.454105 z"
         fill="#6c63ff"
         id="path13110"
         style="fill:#575a89;fill-opacity:1;stroke-width:0.153139" />
      <circle
         cx="305.78665"
         cy="-37.342072"
         r="1.6624912"
         fill="#2f2e41"
         id="circle13112"
         style="stroke-width:0.153139" />
      <path
         d="m 304.0738,-37.749129 a 1.6611818,1.6611818 0 0 1 1.6617,-1.553809 c -0.0346,-0.008 -0.0683,-0.0096 -0.10339,-0.01205 a 1.6625121,1.6625121 0 0 0 -0.21337,3.318171 c 0.0353,0 0.0691,0 0.10403,0 a 1.6611835,1.6611835 0 0 1 -1.44897,-1.753839 z"
         fill="#2f2e41"
         id="path13114"
         style="stroke-width:0.153139" />
      <path
         d="m 304.0644,-37.039223 c -1.48271,-1.229985 -5.7354,0.333383 -6.00982,1.160255 -2.00504,0.273213 -3.52302,1.443028 -3.52302,3.52294 v 1.6e-4 c 1.19207,0.488266 2.54777,0.428097 4.01321,0 2.33618,1.903821 2.49628,4.297113 1.07559,7.046041 l 1.74789,0.03454 2.16659,-3.166501 0.10355,3.21197 4.00663,-0.08041 v -4.602942 a 9.6234558,9.6234558 0 0 0 -1.02754,-4.408856 c -0.62427,-1.212954 -1.59326,-1.921253 -2.55308,-2.717518 z"
         fill="#2f2e41"
         id="path13116"
         style="stroke-width:0.153139" />
      <ellipse
         cx="300.33316"
         cy="-30.019691"
         rx="0.79500759"
         ry="1.113011"
         fill="#ffb8b8"
         id="ellipse13118"
         style="fill:#a0616a;fill-opacity:1;stroke-width:0.153139" />
      <g
         id="g13146"
         transform="matrix(0.80333377,0,0,0.80333377,4042.5035,-2202.994)">
        <path
           d="m -4836.6619,2733.8675 c 0,0 6.8699,7.7123 3.0263,8.2425 -3.8436,0.53 -5.3555,-7.2656 -5.3555,-7.2656 z"
           fill="#ffb9b9"
           id="path13120"
           style="stroke-width:0.190629" />
        <path
           d="m -4845.6265,2697.3611 v 0 a 4.5243671,4.5243671 0 0 1 3.3289,3.746 l 2.1852,15.5535 3.0635,12.407 c 0,0 1.5317,1.3785 0.9191,2.1443 -0.6127,0.7659 0.7657,3.9825 0.7657,3.9825 l -3.8292,1.2253 c 0,0 -0.4594,-3.2166 -1.2254,-3.3698 -0.673,-0.1347 -8.2073,-20.2618 -10.0236,-25.1375 -0.2503,-0.6724 -0.3921,-1.0547 -0.3921,-1.0547 0,0 0.3065,-10.2624 5.2079,-9.4966 z"
           fill="#575a89"
           id="path13122"
           style="stroke-width:0.190629" />
        <path
           d="m -4844.9271,2778.4717 2.3521,4.1682 c 1.8214,3.8887 0.2028,4.5952 -4.2631,2.6675 l -1.0181,-4.9217 z"
           fill="#ffb9b9"
           id="path13124"
           style="stroke-width:0.190629" />
        <path
           d="m -4843.7403,2784.0114 c 0,0 1.1166,-1.8178 1.5204,-1.5134 0.4039,0.3042 2.0695,1.6226 2.0695,1.6226 l 2.1697,2.0782 c 0,0 7.3303,0.7751 2.6725,3.3433 -4.6578,2.5684 -7.232,0.4389 -7.232,0.4389 0,0 -6.5238,0.3393 -6.4185,-1.4809 0.106,-1.8201 2.2091,-4.6997 2.2091,-4.6997 0,0 2.6518,1.7778 3.0093,0.211 z"
           fill="#2f2e41"
           id="path13126"
           style="stroke-width:0.190629" />
        <path
           d="m -4855.3642,2731.3572 2.2051,26.6811 c 0,0 0.073,15.9499 2.4255,19.037 2.352,3.087 2.4255,4.6305 2.4255,4.6305 l 4.8511,-2.4991 c 0,0 -2.4991,-4.1641 -1.9845,-4.8015 a 3.5530244,3.5530244 0 0 0 0.6615,-1.3725 l -1.323,-16.4644 2.4991,-28.6656 z"
           fill="#2f2e41"
           id="path13128"
           style="stroke-width:0.190629" />
        <path
           d="M -4851.9832,2781.7058"
           fill="none"
           stroke="#3f3d56"
           stroke-miterlimit="10"
           id="path13130"
           style="stroke-width:0.190629" />
        <polygon
           points="41.548,693.024 17.064,682.788 29.981,661.407 52.344,664.492 "
           fill="#ffb9b9"
           id="polygon13132"
           transform="matrix(0.19062905,0,0,0.19062905,-4859.3155,2651.8004)" />
        <path
           d="m -4852.7705,2782.0789 c 0,0 1.7504,-1.094 1.9692,-0.6565 0.2189,0.4377 1.0941,2.2976 1.0941,2.2976 l 0.9848,2.7351 c 0,0 6.0173,3.8293 0.8752,4.048 -5.1421,0.2189 -6.455,-2.7352 -6.455,-2.7352 0,0 -5.7986,-2.5161 -4.9233,-4.0479 0.8752,-1.5317 3.9385,-3.1203 3.9385,-3.1203 0,0 1.5317,2.6827 2.5165,1.4792 z"
           fill="#2f2e41"
           id="path13134"
           style="stroke-width:0.190629" />
        <path
           d="m -4836.6948,2731.4307 1.1759,24.5496 c 0,0 -10.7312,22.1975 -11.9072,22.7854 a 2.9524,2.9524 0 0 0 -1.4701,1.7641 l -6.468,-1.6171 2.94,-4.704 6.4681,-15.7294 c 0,0 1.029,-0.441 1.323,-1.911 0.2941,-1.47 0.882,-1.47 -0.5879,-1.764 -1.4701,-0.2941 -1.4701,-1.7641 -1.4701,-1.7641 l -4.8511,-22.3445 z"
           fill="#2f2e41"
           id="path13136"
           style="stroke-width:0.190629" />
        <circle
           cx="-3427.9399"
           cy="-4349.0488"
           r="5.8801284"
           transform="rotate(-80.782519)"
           fill="#ffb9b9"
           id="circle13138"
           style="stroke-width:0.190629" />
        <path
           d="m -4847.2056,2687.4033 c 0,0 -0.441,7.4971 -1.0289,8.2322 -0.5881,0.7349 6.1741,0.5879 6.1741,0.5879 0,0 -0.441,-6.321 0,-6.9091 0.441,-0.588 -5.1452,-1.911 -5.1452,-1.911 z"
           fill="#ffb9b9"
           id="path13140"
           style="stroke-width:0.190629" />
        <path
           d="m -4836.2544,2733.048 c 0,0 -16.6115,-1.4698 -19.6977,0 0,0 1.1362,-4.2149 0.8426,-4.6553 -0.2135,-0.322 0.3755,-12.3279 0.1907,-19.2534 -0.1044,-3.9079 -1.0066,-7.7244 1.6145,-10.6258 0.8922,-0.9855 1.8874,-1.8127 2.9377,-2.217 0,0 -0.2936,-2.7927 1.1761,-2.9395 0,0 5.5873,-0.589 7.6443,1.1763 0.6576,0.5604 1.0714,2.2684 1.1151,3.7401 -1.0179,5.006 -0.6576,10.5608 0.2765,16.3236 0.057,0.3661 0.1196,0.7338 0.183,1.1019 0.9913,5.7149 2.4895,11.6072 3.7172,17.3491 z"
           fill="#575a89"
           id="path13142"
           style="stroke-width:0.190629" />
        <path
           d="m -4845.0588,2688.7684 c 0.4973,-0.03 0.9828,0.1377 1.4766,0.204 1.7668,0.2346 3.6048,-1.0476 3.995,-2.7866 a 2.1380955,2.1380955 0 0 1 0.2043,-0.6658 c 0.272,-0.4439 0.8912,-0.5286 1.4017,-0.4265 0.5105,0.1014 0.9943,0.341 1.5143,0.3683 0.8027,0.042 1.5734,-0.4521 2.0012,-1.1325 a 3.8407942,3.8407942 0 0 0 0.4911,-2.3198 l -0.3847,0.4038 a 1.9546245,1.9546245 0 0 1 -0.1743,-1.0623 1.2327238,1.2327238 0 0 0 -1.1676,0.2989 c -0.3393,0.036 -0.083,-0.6294 -0.3354,-0.8594 a 0.58317241,0.58317241 0 0 0 -0.4103,-0.077 c -0.7217,0 -1.3058,-0.5451 -1.8747,-0.9896 a 7.9662475,7.9662475 0 0 0 -3.3644,-1.5348 c -0.8153,-0.159 -1.682,-0.1845 -2.4551,0.1196 a 5.2441578,5.2441578 0 0 0 -1.6577,1.1761 c -1.2103,1.1638 -2.2821,2.5311 -2.7856,4.1328 a 6.9573315,6.9573315 0 0 0 -0.033,4.0343 c 0.2029,0.6848 0.8143,3.0298 1.7094,3.0844 1.1247,0.068 0.4496,-1.884 1.8495,-1.9676 z"
           fill="#2f2e41"
           id="path13144"
           style="stroke-width:0.190629" />
      </g>
      <path
         d="m 304.12144,-8.6482029 h -10.32043 l 2.32621,-5.8402361 c -0.16894,-2.00962 0.68276,-3.487754 1.90173,-4.774534 l 1.54658,-3.882834 c 2.49877,-1.644504 4.38267,-1.521675 6.38884,0.61439 2.37843,3.367575 0.73207,8.429943 -1.84293,13.8832141 z"
         fill="#6c63ff"
         id="path13148"
         style="fill:#575a89;fill-opacity:1;stroke-width:0.153139" />
      <path
         d="m 299.45262,3.7608939 -0.29346,3.2284377 c -0.10475,1.1523823 -0.7099,1.9480844 -1.83794,1.6902946 v 0 a 1.9113019,1.9113019 0 0 1 -1.35185,-2.5649644 l 1.0261,-2.5994274 2.94863,-12.0404469 -0.49148,-8.7232405 h 4.91448 l -0.61423,9.3374695 z"
         fill="#ffb8b8"
         id="path13150"
         style="fill:#a0616a;fill-opacity:1;stroke-width:0.153139" />
      <g
         id="g13166"
         transform="translate(-172.26715,-215.15524)">
        <g
           id="g13156"
           transform="matrix(1.2157713,0,0,1.2157713,4603.2636,-2092.1728)">
          <path
             d="m -3517.616,1881.0703 -4.8381,-4.8382 1.2243,-0.3993 3.4928,4.5094 c 0.038,0.2419 0.079,0.4849 0.121,0.7281 z"
             opacity="0.1"
             style="isolation:isolate;stroke-width:0.12596"
             id="path13152" />
          <path
             d="m -3519.3692,1869.4303 1.392,0.1491 c 0,0 1.3664,2.651 1.2672,3.204 -0.099,0.553 -0.3153,0.2172 0.2997,1.1019 0.615,0.8847 2.3602,3.1715 2.5763,3.5072 0.4892,0.5501 0.7598,1.5231 1.2432,3.1108 0.1696,0.7034 0.3404,1.7545 0.2382,1.8775 -0.8462,1.0191 -1.5271,0.8098 -2.6899,0.2056 -1.1627,-0.6043 -7.0452,-6.6311 -7.0452,-6.6311 z"
             fill="#575a89"
             id="path13154"
             style="fill:#575a89;fill-opacity:1;stroke-width:0.12596"
             sodipodi:nodetypes="cccsccsccc" />
        </g>
        <g
           id="g13164"
           transform="matrix(1.2157713,0,0,1.2157713,4603.2636,-2092.1728)">
          <circle
             cx="-3504.9607"
             cy="1867.474"
             r="1.6230963"
             fill="#3f3d56"
             id="circle13158"
             style="stroke-width:0.12596" />
          <path
             d="m -3507.8501,1872.767 c 0,0 0.3936,-6.8133 2.4372,-5.2651 2.0434,1.5482 -0.8925,5.8969 -0.8925,5.8969 z"
             fill="#ffb9b9"
             id="path13160"
             style="stroke-width:0.12596" />
          <path
             d="m -3513.834,1877.3925 c 0.5284,-0.2339 6.1076,-4.1594 5.7414,-5.5062 0,0 1.8607,1.3348 2.6578,1.5125 0,0 -6.0716,7.9629 -6.9178,8.982 -0.8461,1.0191 -1.5271,0.8098 -2.6899,0.2056 -0.6776,-1.3247 -0.2017,-2.7942 1.2085,-5.1939 z"
             fill="#575a89"
             id="path13162"
             style="opacity:1;stroke-width:0.12596"
             sodipodi:nodetypes="cccscc" />
        </g>
      </g>
    </g>
    <rect
       style="opacity:0.229675;fill:none;fill-opacity:1;stroke:#ff0000;stroke-width:0.264583;stroke-linecap:round;stroke-miterlimit:4;stroke-dasharray:none;stroke-dashoffset:140;stroke-opacity:1"
       id="rect13170"
       width="181.92714"
       height="109.2858"
       x="-106.05902"
       y="-87.550385" />
    <g
       id="g14203"
       transform="matrix(1.2157713,0,0,1.2157713,4600.7026,-2201.618)">
      <path
         d="m -3507.8501,1872.767 c 0,0 0.3936,-6.8133 2.4372,-5.2651 2.0434,1.5482 -0.8925,5.8969 -0.8925,5.8969 z"
         fill="#ffb9b9"
         id="path14199"
         style="stroke-width:0.12596" />
      <path
         d="m -3513.834,1877.3925 c 0.5284,-0.2339 6.1076,-4.1594 5.7414,-5.5062 0,0 1.8607,1.3348 2.6578,1.5125 0,0 -6.0716,7.9629 -6.9178,8.982 -0.8461,1.0191 -1.5271,0.8098 -2.6899,0.2056 -0.6776,-1.3247 -0.2017,-2.7942 1.2085,-5.1939 z"
         fill="#575a89"
         id="path14201"
         style="opacity:1;stroke-width:0.12596"
         sodipodi:nodetypes="cccscc" />
    </g>
    <rect
       style="opacity:0.229675;fill:none;fill-opacity:1;stroke:#ff0000;stroke-width:0.264583;stroke-linecap:round;stroke-miterlimit:4;stroke-dasharray:none;stroke-dashoffset:140;stroke-opacity:1"
       id="rect14209"
       width="181.92714"
       height="109.2858"
       x="308.52582"
       y="38.254665" />
    <circle
       cx="546.04956"
       cy="66.65889"
       r="1.9733139"
       fill="#3f3d56"
       id="circle14395"
       style="stroke-width:0.153139" />
    <rect
       style="opacity:0.229675;fill:none;fill-opacity:1;stroke:#ff0000;stroke-width:0.264583;stroke-linecap:round;stroke-miterlimit:4;stroke-dasharray:none;stroke-dashoffset:140;stroke-opacity:1"
       id="rect14407"
       width="181.92714"
       height="109.2858"
       x="515.10345"
       y="36.110268" />
    <path
       style="fill:none;stroke:#3f3d56;stroke-width:0.264583px;stroke-linecap:butt;stroke-linejoin:miter;stroke-opacity:1"
       d="m -73.142569,-57.007543 c 21.57807,0 21.57807,0 21.57807,0"
       id="path16359" />
    <path
       style="fill:none;stroke:#3f3d56;stroke-width:0.266765px;stroke-linecap:butt;stroke-linejoin:miter;stroke-opacity:1"
       d="m 547.86652,66.613499 c 21.93547,0 21.93547,0 21.93547,0"
       id="path16541" />
  </g>
</svg>
