<?xml version="1.0" encoding="UTF-8"?>
<svg width="182.19mm" height="109.55mm" version="1.1" viewBox="0 0 182.19 109.55" xmlns="http://www.w3.org/2000/svg">
 <g transform="translate(239.54 647.09)">
  <g transform="translate(-170.36 -154.78)"></g>
  <g transform="translate(-200.26 -236.38)"></g>
  <g transform="translate(-350.23 -558.27)">
   <path d="m130.53-88.668 87.504 8.9363 61.989 70.778-95.861 29.313z" fill="#a9c7d6" stop-color="#000000" stroke-width=".21255"/>
   <path d="m260.99 1.1936h-130.49v-78.121h130.49z" fill="#fff" stroke-width=".20172"/>
   <g transform="matrix(.57879 0 0 .57879 2136.4 -1741.9)" stroke-width=".26458">
    <path d="m-3450.3 2954h28.017a1.1688 1.1688 0 0 1 1.1674 1.1674v29.179a1.1688 1.1688 0 0 1-1.1674 1.1674h-28.017a1.1688 1.1688 0 0 1-1.1674-1.1674v-29.179a1.1688 1.1688 0 0 1 1.1674-1.1674zm28.017 31.047a0.7012 0.7012 0 0 0 0.7005-0.7004v-29.179a0.7012 0.7012 0 0 0-0.7005-0.7004h-28.017a0.7012 0.7012 0 0 0-0.7004 0.7004v29.179a0.7012 0.7012 0 0 0 0.7004 0.7004z" fill="#3f3d56"/>
    <path d="m-3428.3 2979.5a0.79255 0.79255 0 1 0 0-1.5851h-16.077a0.79255 0.79255 0 1 0 0 1.5851z" fill="#e6e6e6"/>
    <path d="m-3428.3 2974.8a0.79255 0.79255 0 1 0 0-1.5851h-16.077a0.79255 0.79255 0 1 0 0 1.5851z" fill="#e6e6e6"/>
    <path d="m-3436.3 2960a4.9887 4.9887 0 1 1-4.9887 4.9888 4.9944 4.9944 0 0 1 4.9887-4.9888z" fill="#285b9e"/>
   </g>
   <g transform="matrix(.57879 0 0 .57879 2135.5 -1608.9)" stroke-width=".26458">
    <path d="m-3273.6 2696.8h-55.63a1.1688 1.1688 0 0 1-1.1674-1.1673v-28.946a1.1688 1.1688 0 0 1 1.1674-1.1674h55.63a1.1688 1.1688 0 0 1 1.1674 1.1674v28.945a1.1688 1.1688 0 0 1-1.1674 1.1674zm-55.63-30.813a0.7012 0.7012 0 0 0-0.7004 0.7004v28.945a0.7012 0.7012 0 0 0 0.7004 0.7005h55.63a0.7012 0.7012 0 0 0 0.7004-0.7005v-28.945a0.7012 0.7012 0 0 0-0.7004-0.7004z" fill="#3f3d56"/>
    <circle cx="-3319.9" cy="2675.7" r="4.7553" fill="#285b9e"/>
    <g fill="#e6e6e6">
     <path d="m-3308.9 2672.6a0.79255 0.79255 0 1 0 0 1.5851h29.955a0.79255 0.79255 0 1 0 0-1.5851z"/>
     <path d="m-3308.9 2677.3a0.79255 0.79255 0 1 0 0 1.5851h16.077a0.79255 0.79255 0 1 0 0-1.5851z"/>
     <path d="m-3323.5 2684.9c-0.6028 0-1.0934 0.3556-1.0934 0.7926 0 0.4369 0.4906 0.7925 1.0934 0.7925h44.141c0.6029 0 1.0935-0.3556 1.0935-0.7925 0-0.437-0.4906-0.7926-1.0935-0.7926z"/>
     <path d="m-3323.5 2689.7c-0.6028 0-1.0934 0.3556-1.0934 0.7926 0 0.4369 0.4906 0.7925 1.0934 0.7925h44.141c0.6029 0 1.0935-0.3556 1.0935-0.7925 0-0.437-0.4906-0.7926-1.0935-0.7926z"/>
    </g>
   </g>
   <g transform="matrix(.57879 0 0 .57879 2342.6 -1641.2)" fill="#fff" stroke-width=".26458">
    <path d="m-3717.3 2730.2h-25.665a1.7198 1.7198 0 0 1 0-3.4396h25.665a1.7198 1.7198 0 1 1 0 3.4396z"/>
    <path d="m-3717.3 2767.6h-25.665a1.7198 1.7198 0 0 1 0-3.4396h25.665a1.7198 1.7198 0 1 1 0 3.4396z"/>
    <path d="m-3717.3 2775.8h-25.665a1.7198 1.7198 0 0 1 0-3.4396h25.665a1.7198 1.7198 0 1 1 0 3.4396z"/>
    <circle cx="-3730" cy="2745.2" r="10.319"/>
   </g>
   <g transform="matrix(1.2158 0 0 1.2158 4346.8 -2322.3)">
    <g transform="matrix(.47607 0 0 .47607 -1667 523.54)" fill="#e6e6e6" stroke-width=".26458">
     <path d="m-3629.5 2868.2-4.5076 0.9508a0.26462 0.26462 0 0 0-0.1814 0.3786l0.42 0.8275-20.385 10.347a0.26458 0.26458 0 1 0 0.2396 0.4718l20.385-10.347 0.42 0.8275a0.26454 0.26454 0 0 0 0.4127 0.077l3.4282-3.0775a0.26458 0.26458 0 0 0-0.2314-0.4558z"/>
     <path d="m-3629.5 2893.9-4.5076-0.9507a0.26462 0.26462 0 0 1-0.1814-0.3786l0.42-0.8275-20.385-10.347a0.26458 0.26458 0 1 1 0.2396-0.4718l20.385 10.347 0.42-0.8275a0.26454 0.26454 0 0 1 0.4127-0.077l3.4282 3.0776a0.26458 0.26458 0 0 1-0.2314 0.4557z"/>
    </g>
    <g transform="matrix(.47607 0 0 .47607 -1709.7 542.22)" fill="#e6e6e6" stroke-width=".26458">
     <path d="m-3531.7 2833a5.8208 5.8208 0 1 1 5.8209-5.8208 5.8274 5.8274 0 0 1-5.8209 5.8208zm0-11.112a5.2917 5.2917 0 1 0 5.2917 5.2917 5.2977 5.2977 0 0 0-5.2917-5.2917z"/>
     <path d="m-3532.3 2830.4a0.77532 0.77532 0 0 1-0.4665-0.155l-0.01-0.01-1.7569-1.3439a0.78079 0.78079 0 1 1 0.9501-1.2393l1.1379 0.8727 2.689-3.5082a0.7804 0.7804 0 0 1 1.0942-0.1445l2e-4 2e-4 -0.017 0.023 0.017-0.023a0.78134 0.78134 0 0 1 0.1443 1.0944l-3.1629 4.1245a0.78088 0.78088 0 0 1-0.6209 0.3044z" data-name="Path 395"/>
    </g>
    <path d="m-3388.2 1903.1h-4.5345a1.2596 1.2596 0 0 1 0-2.5192h4.5345a1.2596 1.2596 0 0 1 0 2.5192z" fill="#285b9e" stroke-width=".12596"/>
   </g>
   <path d="m260.99 1.1936h-130.49v-78.121h130.49zm-128.38-2.4656h126.26v-73.19h-126.26z" fill="#e5e5e5" stroke-width=".20172"/>
   <g transform="matrix(.80333 0 0 .80333 4014.5 -2224.2)">
    <g stroke-width=".19063">
     <path d="m-4836.7 2733.9s6.8699 7.7123 3.0263 8.2425c-3.8436 0.53-5.3555-7.2656-5.3555-7.2656z" fill="#ffb9b9"/>
     <path d="m-4845.6 2697.4a4.5244 4.5244 0 0 1 3.3289 3.746l2.1852 15.554 3.0635 12.407s1.5317 1.3785 0.9191 2.1443c-0.6127 0.7659 0.7657 3.9825 0.7657 3.9825l-3.8292 1.2253s-0.4594-3.2166-1.2254-3.3698c-0.673-0.1347-8.2073-20.262-10.024-25.138-0.2503-0.6724-0.3921-1.0547-0.3921-1.0547s0.3065-10.262 5.2079-9.4966z" fill="#575a89"/>
     <path d="m-4844.9 2778.5 2.3521 4.1682c1.8214 3.8887 0.2028 4.5952-4.2631 2.6675l-1.0181-4.9217z" fill="#ffb9b9"/>
     <path d="m-4843.7 2784s1.1166-1.8178 1.5204-1.5134c0.4039 0.3042 2.0695 1.6226 2.0695 1.6226l2.1697 2.0782s7.3303 0.7751 2.6725 3.3433c-4.6578 2.5684-7.232 0.4389-7.232 0.4389s-6.5238 0.3393-6.4185-1.4809c0.106-1.8201 2.2091-4.6997 2.2091-4.6997s2.6518 1.7778 3.0093 0.211z" fill="#2f2e41"/>
     <path d="m-4855.4 2731.4 2.2051 26.681s0.073 15.95 2.4255 19.037c2.352 3.087 2.4255 4.6305 2.4255 4.6305l4.8511-2.4991s-2.4991-4.1641-1.9845-4.8015a3.553 3.553 0 0 0 0.6615-1.3725l-1.323-16.464 2.4991-28.666z" fill="#2f2e41"/>
     <path d="m-4852 2781.7" fill="none" stroke="#3f3d56" stroke-miterlimit="10"/>
    </g>
    <polygon transform="matrix(.19063 0 0 .19063 -4859.3 2651.8)" points="17.064 682.79 29.981 661.41 52.344 664.49 41.548 693.02" fill="#ffb9b9"/>
    <g stroke-width=".19063">
     <path d="m-4852.8 2782.1s1.7504-1.094 1.9692-0.6565c0.2189 0.4377 1.0941 2.2976 1.0941 2.2976l0.9848 2.7351s6.0173 3.8293 0.8752 4.048c-5.1421 0.2189-6.455-2.7352-6.455-2.7352s-5.7986-2.5161-4.9233-4.0479c0.8752-1.5317 3.9385-3.1203 3.9385-3.1203s1.5317 2.6827 2.5165 1.4792z" fill="#2f2e41"/>
     <path d="m-4836.7 2731.4 1.1759 24.55s-10.731 22.198-11.907 22.785a2.9524 2.9524 0 0 0-1.4701 1.7641l-6.468-1.6171 2.94-4.704 6.4681-15.729s1.029-0.441 1.323-1.911c0.2941-1.47 0.882-1.47-0.5879-1.764-1.4701-0.2941-1.4701-1.7641-1.4701-1.7641l-4.8511-22.344z" fill="#2f2e41"/>
     <circle transform="rotate(-80.783)" cx="-3427.9" cy="-4349" r="5.8801" fill="#ffb9b9"/>
     <path d="m-4847.2 2687.4s-0.441 7.4971-1.0289 8.2322c-0.5881 0.7349 6.1741 0.5879 6.1741 0.5879s-0.441-6.321 0-6.9091c0.441-0.588-5.1452-1.911-5.1452-1.911z" fill="#ffb9b9"/>
     <path d="m-4836.3 2733s-16.612-1.4698-19.698 0c0 0 1.1362-4.2149 0.8426-4.6553-0.2135-0.322 0.3755-12.328 0.1907-19.253-0.1044-3.9079-1.0066-7.7244 1.6145-10.626 0.8922-0.9855 1.8874-1.8127 2.9377-2.217 0 0-0.2936-2.7927 1.1761-2.9395 0 0 5.5873-0.589 7.6443 1.1763 0.6576 0.5604 1.0714 2.2684 1.1151 3.7401-1.0179 5.006-0.6576 10.561 0.2765 16.324 0.057 0.3661 0.1196 0.7338 0.183 1.1019 0.9913 5.7149 2.4895 11.607 3.7172 17.349z" fill="#575a89"/>
     <path d="m-4845.1 2688.8c0.4973-0.03 0.9828 0.1377 1.4766 0.204 1.7668 0.2346 3.6048-1.0476 3.995-2.7866a2.1381 2.1381 0 0 1 0.2043-0.6658c0.272-0.4439 0.8912-0.5286 1.4017-0.4265 0.5105 0.1014 0.9943 0.341 1.5143 0.3683 0.8027 0.042 1.5734-0.4521 2.0012-1.1325a3.8408 3.8408 0 0 0 0.4911-2.3198l-0.3847 0.4038a1.9546 1.9546 0 0 1-0.1743-1.0623 1.2327 1.2327 0 0 0-1.1676 0.2989c-0.3393 0.036-0.083-0.6294-0.3354-0.8594a0.58317 0.58317 0 0 0-0.4103-0.077c-0.7217 0-1.3058-0.5451-1.8747-0.9896a7.9662 7.9662 0 0 0-3.3644-1.5348c-0.8153-0.159-1.682-0.1845-2.4551 0.1196a5.2442 5.2442 0 0 0-1.6577 1.1761c-1.2103 1.1638-2.2821 2.5311-2.7856 4.1328a6.9573 6.9573 0 0 0-0.033 4.0343c0.2029 0.6848 0.8143 3.0298 1.7094 3.0844 1.1247 0.068 0.4496-1.884 1.8495-1.9676z" fill="#2f2e41"/>
    </g>
   </g>
   <rect x="110.82" y="-88.684" width="181.93" height="109.29" opacity="0" stroke-width=".26458"/>
  </g>
 </g>
</svg>
