<?xml version="1.0" encoding="UTF-8"?>
<svg width="182.19mm" height="109.55mm" version="1.1" viewBox="0 0 182.19 109.55" xmlns="http://www.w3.org/2000/svg">
 <g transform="translate(-220.03 601.62)">
  <g transform="translate(-170.36 -154.78)"></g>
  <g transform="translate(-200.26 -236.38)"></g>
  <path d="m273.53-523.63h-11.541a0.89643 0.89643 0 0 1-0.8953-0.8955v-4.9746a6.6659 6.6659 0 1 1 13.332 0v4.9746a0.89643 0.89643 0 0 1-0.8954 0.8955z" fill="#2f2e41" stroke-width=".27257"/>
  <g transform="matrix(.80333 0 0 .80333 4123.8 -2737)">
   <polygon transform="matrix(.3393 0 0 .3393 -4933.7 2643.7)" points="528.49 410.99 560.66 423.5 563.91 415.16 533.28 398.68" fill="#ffb8b8"/>
   <g stroke-width=".3393">
    <path d="m-4737.5 2780a3.8092 3.8092 0 0 0-4.9331 2.1714l-0.7422 1.9078-1.1446 2.9451-0.2797 0.7224 3.6673 1.4265 3.5476-9.1273z" fill="#2f2e41"/>
    <path d="m-4744.4 2781.9-0.4787 1.269-1.1943 3.1677-0.029 0.08c-3.043 0.391-6.3789-0.3755-9.4642-1.5662a38.47 38.47 0 0 1-3.6224-1.6164c-1.7449-0.8817-3.3071-1.8121-4.5534-2.608-1.8766-1.2044-3.0369-2.1088-3.0369-2.1088s-0.3065 0.2773-0.8613 0.7522c-0.7434 0.636-1.9314 1.6293-3.4362 2.7987q-0.8611 0.6738-1.8489 1.4096c-4.8552 3.6011-11.086-6.0082-11.086-6.0082s1.7524-1.1157 2.21-1.3323c1.4741-0.6974 4.9372-2.343 7.925-3.8055 1.5393-0.7545 2.9505-1.4621 3.8981-1.9648 3.3552-1.7864 7.526 1.5938 7.526 1.5938z" fill="#2f2e41"/>
    <path d="m-4744.4 2781.9-0.4787 1.269-1.1943 3.1677-0.029 0.08c-3.043 0.391-6.3789-0.3755-9.4642-1.5662a38.47 38.47 0 0 1-3.6224-1.6164c-1.7449-0.8817-3.3071-1.8121-4.5534-2.608-1.8766-1.2044-3.0369-2.1088-3.0369-2.1088s-0.3065 0.2773-0.8613 0.7522c-0.7434 0.636-1.9314 1.6293-3.4362 2.7987q-0.8611 0.6738-1.8489 1.4096c-4.8552 3.6011-11.086-6.0082-11.086-6.0082s1.7524-1.1157 2.21-1.3323c1.4741-0.6974 4.9372-2.343 7.925-3.8055 1.5393-0.7545 2.9505-1.4621 3.8981-1.9648 3.3552-1.7864 7.526 1.5938 7.526 1.5938z" opacity=".14"/>
   </g>
   <polygon transform="matrix(.3393 0 0 .3393 -4933.7 2643.7)" points="526.96 420.29 558.08 435.23 561.95 427.16 532.68 408.38" fill="#ffb8b8"/>
   <g stroke-width=".3393">
    <path d="m-4737.9 2784.4a3.8092 3.8092 0 0 0-5.085 1.7858l-0.8869 1.8455-1.3672 2.8485-0.3344 0.6985 3.5471 1.7042 4.238-8.828z" fill="#2f2e41"/>
    <path d="m-4744.8 2785.8-0.5748 1.2285-1.434 3.0666-0.035 0.077c-3.064 0.1559-6.331-0.8645-9.3159-2.2887a38.47 38.47 0 0 1-3.4875-1.89c-1.672-1.0131-3.1582-2.0608-4.3395-2.9501-1.7786-1.3449-2.866-2.3356-2.866-2.3356s-0.3269 0.2526-0.9165 0.6836c-0.79 0.577-2.0508 1.4762-3.6411 2.5263q-0.9102 0.6057-1.9519 1.2634c-5.1174 3.2175-12.395 7.1362-18.585 7.9634-10.871 1.4539-8.3127-13.054-8.3127-13.054l8.6522-4.4931 3.6733 0.7455 4.0894 0.8272 1.4491 0.2948s0.275-0.1044 0.7479-0.2848c1.5234-0.5822 5.1026-1.9569 8.1939-3.1854 1.5927-0.6342 3.054-1.231 4.0373-1.6596 3.4828-1.5233 7.3813 2.1673 7.3813 2.1673z" fill="#2f2e41"/>
    <path d="m-4816.1 2793.5a2.3226 2.3226 0 0 0 1.6179-3.1729l3.7156-3.7902-1.7527-2.8196-5.1717 5.4262a2.3352 2.3352 0 0 0 1.5909 4.3565z" fill="#ffb8b8"/>
    <circle cx="-4798.1" cy="2749.8" r="5.7927" fill="#ffb8b8"/>
    <path d="m-4805.6 2765.8 5.0461 14.306-0.03 0.05c-0.7018 1.1601-0.9312 2.096-0.6634 2.7064a1.1793 1.1793 0 0 0 0.7478 0.645l11.941-8.3466-0.418-3.3452 0.023-0.038c1.1541-1.8468 1.5279-3.5192 1.111-4.9706a4.7974 4.7974 0 0 0-2.2777-2.7471l-0.041-0.032-5.9558-7.2489-7.9616 1.4144z" fill="#285b9e"/>
    <path d="m-4813.3 2790.9-3.3805-4.1605 8.1492-13.452 3.7993-11.744 0.118 0.038-0.118-0.038a4.7178 4.7178 0 1 1 8.4126 4.0712l-6.975 10.45z" fill="#285b9e"/>
    <path d="m-4789.8 2748.6h-8.7847l-0.089-1.2613-0.4502 1.2613h-1.3527l-0.1786-2.4997-0.8928 2.4997h-2.6172v-0.1241a6.5713 6.5713 0 0 1 6.5639-6.564h1.2386a6.5714 6.5714 0 0 1 6.5639 6.564z" fill="#2f2e41"/>
    <path d="m-4798.7 2756.4a1.1386 1.1386 0 0 1-0.1972-0.018l-6.4326-1.135v-10.631h7.081l-0.1753 0.2045c-2.4392 2.8446-0.6016 7.4573 0.7108 9.9535a1.0981 1.0981 0 0 1-0.088 1.1659 1.1102 1.1102 0 0 1-0.8994 0.4596z" fill="#2f2e41"/>
   </g>
  </g>
  <rect x="220.16" y="-601.49" width="181.93" height="109.29" opacity="0" stroke-width=".26458"/>
 </g>
</svg>
