<?xml version="1.0" encoding="UTF-8"?>
<svg width="182.19mm" height="109.55mm" version="1.1" viewBox="0 0 182.19 109.55" xmlns="http://www.w3.org/2000/svg">
 <g transform="translate(-54.213 584.9)">
  <g transform="translate(-170.36 -154.78)"></g>
  <g transform="translate(-200.26 -236.38)"></g>
  <polygon transform="matrix(.15314 0 0 .15314 88.387 -587.28)" points="816.22 677.19 813.81 706.87 799.37 704.46 800.97 677.19" fill="#a0616a"/>
  <polygon transform="matrix(.15314 0 0 .15314 88.387 -587.28)" points="942.74 652.65 953.97 680.23 939.99 684.59 929.13 659.52" fill="#a0616a"/>
  <g fill="#2f2e41" stroke-width=".15314">
   <path d="m233.28-486.77-2.7029 1.1058-12.9-16.955-4.0544 19.904-2.7029-0.4914c-1.734-17.16-3.1479-34.662-1.413-42.94l10.013-0.43 4.5459 14.498 2.2115 9.8289z"/>
   <path d="m212.89-475.65a1.9406 1.9406 0 0 1-1.2029-0.1278l-1.3137-0.5913c-1.1017-0.057-1.8516 0.1629-2.4651-0.6374a1.6074 1.6074 0 0 1-0.1875-1.6206 1.6185 1.6185 0 0 1 1.3217-0.9616l1.8044-1.137 0.095 0.8523c0.8247 0.4671 1.8038 0.2654 2.8414-0.1895l0.5663 1.9823a1.9406 1.9406 0 0 1-1.4593 2.4306z"/>
   <path d="m235.35-479.71a1.9405 1.9405 0 0 1-1.1793 0.2697l-1.4345-0.1326c-1.0602 0.3042-1.6984 0.7553-2.5384 0.1975a1.6074 1.6074 0 0 1-0.7037-1.4717 1.6185 1.6185 0 0 1 0.9378-1.3388l1.3374-1.6614 0.3664 0.7754c0.9318 0.1742 1.7923-0.3347 2.6259-1.1018l1.1794 1.691a1.9406 1.9406 0 0 1-0.591 2.7727z"/>
  </g>
  <g>
   <circle cx="215.84" cy="-548.44" r="4.423" fill="#a0616a" stroke-width=".15314"/>
   <polygon transform="matrix(.15314 0 0 .15314 88.387 -587.28)" points="851.52 269.62 867.56 314.55 829.85 306.53 825.04 275.24" fill="#a0616a"/>
   <path d="m220.26-534.31h-5.6516l0.3962-3.6868a2.5575 2.5575 0 0 1 2.4277-2.4501 2.5575 2.5575 0 0 1 2.6833 2.4541z" fill="#575a89" stroke-width=".15314"/>
  </g>
  <g fill="#2f2e41" stroke-width=".15314">
   <circle cx="221.31" cy="-554.65" r="1.6625"/>
   <path d="m219.6-555.06a1.6612 1.6612 0 0 1 1.6617-1.5538c-0.035-0.01-0.068-0.01-0.1034-0.012a1.6625 1.6625 0 0 0-0.2134 3.3182h0.1041a1.6612 1.6612 0 0 1-1.449-1.7538z"/>
   <path d="m219.59-554.35c-1.4827-1.2299-5.7354 0.3334-6.0098 1.1603-2.0051 0.2732-3.523 1.443-3.523 3.5229v2e-4c1.192 0.4883 2.5477 0.4281 4.0132 0 2.3362 1.9038 2.4963 4.2971 1.0756 7.046l1.7479 0.034 2.1665-3.1665 0.1036 3.212 4.0066-0.08v-4.6029a9.6235 9.6235 0 0 0-1.0275-4.4089c-0.6243-1.2129-1.5933-1.9212-2.5531-2.7175z"/>
  </g>
  <g stroke-width=".15314">
   <ellipse cx="215.86" cy="-547.33" rx=".79501" ry="1.113" fill="#a0616a"/>
   <path d="m219.65-525.96h-10.32l2.3262-5.8403c-0.1689-2.0096 0.6828-3.4877 1.9018-4.7745l1.5465-3.8828c2.4988-1.6445 4.3827-1.5217 6.3889 0.6143 2.3784 3.3676 0.732 8.43-1.843 13.883z" fill="#575a89"/>
   <path d="m214.98-513.55-0.2934 3.2284c-0.1048 1.1524-0.7099 1.9481-1.838 1.6903a1.9113 1.9113 0 0 1-1.3518-2.565l1.0261-2.5994 2.9486-12.04-0.4915-8.7233h4.9145l-0.6142 9.3375z" fill="#a0616a"/>
  </g>
  <rect x="54.345" y="-584.77" width="181.93" height="109.29" opacity="0" stroke-width=".26458"/>
 </g>
</svg>
