<?xml version="1.0" encoding="UTF-8"?>
<svg width="182.19mm" height="109.55mm" version="1.1" viewBox="0 0 182.19 109.55" xmlns="http://www.w3.org/2000/svg">
 <g transform="translate(125.83 663.77)">
  <g transform="translate(-170.36 -154.78)"></g>
  <g transform="translate(-200.26 -236.38)"></g>
  <g transform="translate(-836.66 -700.46)">
   <g transform="matrix(.57879 0 0 .57879 2942.8 -1515.7)">
    <g stroke-width=".26458">
     <path transform="translate(-.00017637 -1.5118e-5)" d="m-3702.6 2788.5h-54.991c-2.556 0-4.6274-2.0742-4.6303-4.6302v-66.451c0-1.9116 1.5513-3.4608 3.4629-3.463h57.27c1.9422 0 3.516 1.5761 3.5182 3.5183v66.396c0 2.556-2.0742 4.6273-4.6302 4.6302z" fill="#fff"/>
     <path transform="translate(-.00017637 -1.5118e-5)" d="m-3702.6 2788.5h-54.991a4.6355 4.6355 0 0 1-4.6303-4.6302v-66.451a3.4669 3.4669 0 0 1 3.4629-3.463h57.27a3.5222 3.5222 0 0 1 3.5182 3.5183v66.396a4.6354 4.6354 0 0 1-4.6302 4.6302zm-56.158-74.015a2.937 2.937 0 0 0-2.9337 2.9338v66.451a4.1057 4.1057 0 0 0 4.1011 4.1011h54.991a4.1057 4.1057 0 0 0 4.101-4.1011v-66.396a2.9924 2.9924 0 0 0-2.989-2.9891z" fill="#ccc"/>
     <path transform="translate(-.00017637 -1.5118e-5)" d="m-3753.4 2783.9h46.524a4.2333 4.2333 0 0 0 4.2334-4.2333v-56.766a4.2333 4.2333 0 0 0-4.2334-4.2333h-46.524a4.2333 4.2333 0 0 0-4.2333 4.2333v56.766a4.2333 4.2333 0 0 0 4.2333 4.2333z" fill="#e6e6e6"/>
     <g fill="#fff">
      <path d="m-3717.3 2730.2h-25.665a1.7198 1.7198 0 0 1 0-3.4396h25.665a1.7198 1.7198 0 1 1 0 3.4396z"/>
      <path d="m-3717.3 2767.6h-25.665a1.7198 1.7198 0 0 1 0-3.4396h25.665a1.7198 1.7198 0 1 1 0 3.4396z"/>
      <path d="m-3717.3 2775.8h-25.665a1.7198 1.7198 0 0 1 0-3.4396h25.665a1.7198 1.7198 0 1 1 0 3.4396z"/>
      <circle cx="-3730" cy="2745.2" r="10.319"/>
     </g>
    </g>
   </g>
  </g>
  <rect x="-125.7" y="-663.63" width="181.93" height="109.29" opacity="0" stroke-width=".26458"/>
 </g>
</svg>
