<?xml version="1.0" encoding="UTF-8"?>
<svg width="182.19mm" height="109.55mm" version="1.1" viewBox="0 0 182.19 109.55" xmlns="http://www.w3.org/2000/svg">
 <g transform="translate(132.76 673.43)">
  <g transform="translate(-170.36 -154.78)"></g>
  <g transform="translate(-200.26 -236.38)"></g>
  <g transform="translate(-413.81 -739.39)">
   <g transform="matrix(.80333 0 0 .80333 3990.3 -2030.7)" stroke-width=".3393">
    <path d="m-4535 2713.3a2.3226 2.3226 0 0 0-1.7798 3.0848l-3.9067 3.5931 1.6045 2.9065 5.4456-5.1514a2.3352 2.3352 0 0 0-1.3636-4.433z" fill="#ffb8b8"/>
    <path d="m-4546.7 2729.6c-0.1765 0-0.3533 0-0.5302-0.023-0.5548-2.2485-1.056-3.7387 0.4646-5.9073l7.8567-6.3837 4.5492 1.7709-7.6827 8.4815c-1.1941 1.3108-2.8845 2.0589-4.6576 2.0613z" fill="#285b9e"/>
   </g>
  </g>
  <rect x="-132.62" y="-673.29" width="181.93" height="109.29" opacity="0" stroke-width=".26458"/>
 </g>
</svg>
