<?xml version="1.0" encoding="UTF-8"?>
<svg width="182.19mm" height="109.55mm" version="1.1" viewBox="0 0 182.19 109.55" xmlns="http://www.w3.org/2000/svg">
 <g transform="translate(201.98 692.27)">
  <g transform="translate(-170.36 -154.78)"></g>
  <g transform="translate(-200.26 -236.38)"></g>
  <g transform="matrix(1.2158 0 0 1.2158 4090.3 -2932)" stroke-width=".12596">
   <path d="m-3507.9 1872.8s0.3936-6.8133 2.4372-5.2651c2.0434 1.5482-0.8925 5.8969-0.8925 5.8969z" fill="#ffb9b9"/>
   <path d="m-3513.8 1877.4c0.5284-0.2339 6.1076-4.1594 5.7414-5.5062 0 0 1.8607 1.3348 2.6578 1.5125 0 0-6.0716 7.9629-6.9178 8.982-0.8461 1.0191-1.5271 0.8098-2.6899 0.2056-0.6776-1.3247-0.2017-2.7942 1.2085-5.1939z" fill="#575a89"/>
  </g>
  <rect x="-201.85" y="-692.14" width="181.93" height="109.29" opacity="0" stroke-width=".26458"/>
 </g>
</svg>
