<?xml version="1.0" encoding="UTF-8"?>
<svg width="182.19mm" height="109.55mm" version="1.1" viewBox="0 0 182.19 109.55" xmlns="http://www.w3.org/2000/svg">
 <g transform="translate(246.43 763.59)">
  <g transform="translate(-170.36 -154.78)"></g>
  <g transform="translate(-200.26 -236.38)"></g>
  <g transform="translate(-527.48 -829.55)">
   <g transform="matrix(.57879 0 0 .57879 2294.9 -1429)">
    <path d="m-3334.9 2727.4h-26.283l6.1852-10.713a1.263 1.263 0 0 1 2.1877 0l2.6422 4.5765 4.4927-7.7815a1.5813 1.5813 0 0 1 2.7391 0z" fill="#285b9e" stroke-width=".26458"/>
   </g>
   <path d="m364.72 149.56h-16.216a0.67647 0.67647 0 0 1-0.67569-0.67568v-9.0507a0.67647 0.67647 0 0 1 0.67569-0.67569h16.216a0.67647 0.67647 0 0 1 0.67569 0.67569v9.0507a0.67647 0.67647 0 0 1-0.67569 0.67568zm-16.216-10.132a0.40585 0.40585 0 0 0-0.40544 0.40537v9.0507a0.40585 0.40585 0 0 0 0.40544 0.40544h16.216a0.40585 0.40585 0 0 0 0.40545-0.40544v-9.0507a0.40585 0.40585 0 0 0-0.40545-0.40545z" fill="#3f3d56" stroke-width=".15314"/>
  </g>
  <rect x="-246.3" y="-763.45" width="181.93" height="109.29" opacity="0" stroke-width=".26458"/>
 </g>
</svg>
