<?xml version="1.0" encoding="UTF-8"?>
<svg width="182.19mm" height="109.55mm" version="1.1" viewBox="0 0 182.19 109.55" xmlns="http://www.w3.org/2000/svg">
 <g transform="translate(114.92 590.89)">
  <g transform="translate(-170.36 -154.78)"></g>
  <g transform="translate(-200.26 -236.38)"></g>
  <g transform="matrix(.57879 0 0 .57879 1983.3 -2085.8)" stroke-width=".26458">
   <path d="m-3381.4 2707.7h-28.017a1.1688 1.1688 0 0 1-1.1674-1.1674v-29.179a1.1688 1.1688 0 0 1 1.1674-1.1674h28.017a1.1688 1.1688 0 0 1 1.1674 1.1674v29.179a1.1688 1.1688 0 0 1-1.1674 1.1674zm-28.017-31.047a0.7012 0.7012 0 0 0-0.7005 0.7005v29.179a0.7012 0.7012 0 0 0 0.7005 0.7004h28.017a0.7012 0.7012 0 0 0 0.7004-0.7004v-29.179a0.7012 0.7012 0 0 0-0.7004-0.7005z" fill="#3f3d56"/>
   <path d="m-3403.5 2682.2a0.79255 0.79255 0 0 0 0 1.5851h16.078a0.79255 0.79255 0 0 0 0-1.5851z" fill="#e6e6e6"/>
   <path d="m-3403.5 2686.9a0.79255 0.79255 0 1 0 0 1.5851h16.078a0.79255 0.79255 0 1 0 0-1.5851z" fill="#e6e6e6"/>
   <path d="m-3395.4 2701.7a4.9887 4.9887 0 1 1 4.9887-4.9887 4.9944 4.9944 0 0 1-4.9887 4.9887z" fill="#285b9e"/>
  </g>
  <rect x="-114.78" y="-590.75" width="181.93" height="109.29" opacity="0" stroke-width=".26458"/>
 </g>
</svg>
